<svg width="209" height="52" viewBox="0 0 209 52" fill="none" xmlns="http://www.w3.org/2000/svg">
<path d="M11.4483 23.1659C9.65642 32.2351 3.06948 37.2954 0 38.6919C9.20844 26.3697 7.21743 24.891 6.96855 14.5403C-0.248877 9.61137 -0.746631 4.68246 0.746631 0C0.497754 6.65403 7.46631 12.0758 11.9461 12.0758C16.4259 12.0758 19.9101 8.62559 21.9012 5.4218C22.15 9.61137 18.6658 13.3081 15.4304 14.0474C13.6882 25.6303 18.6658 29.327 21.1545 34.7488C18.9146 34.0095 12.6927 28.0948 11.4483 23.1659Z" transform="translate(15.6792 13.308)" fill="#004A7E"/>
<ellipse cx="4.47978" cy="4.43602" rx="4.47978" ry="4.43602" transform="translate(23.6433 14.5403)" fill="#004A7E"/>
<path fill-rule="evenodd" clip-rule="evenodd" d="M21.6523 37.9526V34.0095L13.9371 35.4882V6.90048L38.5759 4.436V30.8057L32.8517 32.0379V35.7346L41.3136 34.0095V30.8323L50.0242 31.2986V0L41.3136 3.45023V0L10.4528 3.2038V6.08273L0 4.436V40.6635L10.4528 36.4291V40.1706L21.6523 37.9526ZM8.71069 8.15656L10.4528 8.37915V20.9677L8.71069 21.1199V8.15656ZM7.71518 8.02936L2.73764 7.39337V21.6418L7.71518 21.2069V8.02936ZM2.73764 22.6314V37.2133L7.71518 35.3053V22.1965L2.73764 22.6314ZM8.71069 34.9237L10.4528 34.2559V21.9573L8.71069 22.1095V34.9237ZM43.5534 4.59006L41.3135 5.42181V16.6283L43.5534 16.2586V4.59006ZM44.549 4.2204V16.0943L47.2866 15.6425V3.2038L44.549 4.2204ZM47.2866 16.6419L44.549 17.0937V29.2141L47.2866 29.327V16.6419ZM43.5534 29.173V17.258L41.3135 17.6277V29.0806L43.5534 29.173Z" fill="url(#paint0_linear)"/>
<path d="M4.99455 1.24907H1.35618V7.95653H0V0.144402H4.99455V1.24907Z" transform="translate(60.1067 36.1572)" fill="#004A7F"/>
<path d="M11.039 7.95653C10.9613 7.8025 10.8981 7.52814 10.8495 7.13344C10.2224 7.77844 9.47385 8.10093 8.60375 8.10093C7.82601 8.10093 7.1868 7.88433 6.68613 7.45113C6.19033 7.01311 5.94242 6.45957 5.94242 5.79051C5.94242 4.97704 6.25352 4.34649 6.87571 3.89885C7.50276 3.44639 8.38258 3.22016 9.51516 3.22016H10.8276V2.60645C10.8276 2.13955 10.6866 1.76892 10.4047 1.49456C10.1228 1.21538 9.70717 1.07579 9.15789 1.07579C8.67666 1.07579 8.27321 1.19613 7.94753 1.4368C7.62185 1.67747 7.45901 1.96868 7.45901 2.31043H6.10283C6.10283 1.92054 6.24136 1.5451 6.51843 1.18409C6.80037 0.818276 7.17951 0.529473 7.65588 0.317684C8.13711 0.105895 8.66451 0 9.23809 0C10.1471 0 10.8592 0.226229 11.3744 0.678688C11.8897 1.12633 12.1571 1.74485 12.1765 2.53425V6.12985C12.1765 6.84705 12.2689 7.41743 12.4536 7.84101V7.95653H11.039ZM8.80062 6.9385C9.22351 6.9385 9.62453 6.8302 10.0037 6.6136C10.3828 6.39699 10.6575 6.11541 10.8276 5.76885V4.16599H9.77036C8.11766 4.16599 7.29131 4.64492 7.29131 5.60279C7.29131 6.02155 7.43228 6.34886 7.71421 6.58472C7.99614 6.82057 8.35828 6.9385 8.80062 6.9385Z" transform="translate(60.1067 36.1572)" fill="#004A7F"/>
<path d="M20.9552 4.13711C20.9552 5.32602 20.6806 6.28388 20.1313 7.0107C19.582 7.73752 18.8383 8.10093 17.9002 8.10093C16.9426 8.10093 16.1891 7.8001 15.6399 7.19842V10.9601H14.291V0.144402H15.5232L15.5888 1.01081C16.1381 0.336937 16.9013 0 17.8783 0C18.8262 0 19.5747 0.353784 20.124 1.06135C20.6782 1.76892 20.9552 2.75326 20.9552 4.01437V4.13711ZM19.6063 3.98549C19.6063 3.10464 19.4168 2.4091 19.0376 1.89888C18.6585 1.38866 18.1384 1.13355 17.4773 1.13355C16.6607 1.13355 16.0482 1.49215 15.6399 2.20935V5.94213C16.0433 6.65451 16.6607 7.0107 17.4919 7.0107C18.1384 7.0107 18.6512 6.758 19.0303 6.25259C19.4143 5.74237 19.6063 4.98667 19.6063 3.98549Z" transform="translate(60.1067 36.1572)" fill="#004A7F"/>
<path d="M27.5466 7.95653C27.4688 7.8025 27.4056 7.52814 27.357 7.13344C26.73 7.77844 25.9814 8.10093 25.1113 8.10093C24.3335 8.10093 23.6943 7.88433 23.1937 7.45113C22.6979 7.01311 22.45 6.45957 22.45 5.79051C22.45 4.97704 22.7611 4.34649 23.3832 3.89885C24.0103 3.44639 24.8901 3.22016 26.0227 3.22016H27.3351V2.60645C27.3351 2.13955 27.1942 1.76892 26.9122 1.49456C26.6303 1.21538 26.2147 1.07579 25.6654 1.07579C25.1842 1.07579 24.7807 1.19613 24.4551 1.4368C24.1294 1.67747 23.9665 1.96868 23.9665 2.31043H22.6104C22.6104 1.92054 22.7489 1.5451 23.026 1.18409C23.3079 0.818276 23.687 0.529473 24.1634 0.317684C24.6446 0.105895 25.172 0 25.7456 0C26.6546 0 27.3667 0.226229 27.882 0.678688C28.3972 1.12633 28.6646 1.74485 28.684 2.53425V6.12985C28.684 6.84705 28.7764 7.41743 28.9611 7.84101V7.95653H27.5466ZM25.3082 6.9385C25.731 6.9385 26.1321 6.8302 26.5112 6.6136C26.8904 6.39699 27.165 6.11541 27.3351 5.76885V4.16599H26.2779C24.6252 4.16599 23.7988 4.64492 23.7988 5.60279C23.7988 6.02155 23.9398 6.34886 24.2217 6.58472C24.5037 6.82057 24.8658 6.9385 25.3082 6.9385Z" transform="translate(60.1067 36.1572)" fill="#004A7F"/>
<path d="M37.244 7.95653H35.8951V4.62085H32.2714V7.95653H30.9152V0.144402H32.2714V3.53062H35.8951V0.144402H37.244V7.95653Z" transform="translate(60.1067 36.1572)" fill="#004A7F"/>
<path d="M45.2791 1.22741H42.6323V7.95653H41.2834V1.22741H38.6877V0.144402H45.2791V1.22741Z" transform="translate(60.1067 36.1572)" fill="#004A7F"/>
<path d="M50.4194 7.95653V0.144402H53.4964C54.5463 0.144402 55.3508 0.32731 55.9098 0.693128C56.4737 1.05413 56.7556 1.58601 56.7556 2.28877C56.7556 2.64977 56.6462 2.97708 56.4275 3.2707C56.2087 3.5595 55.8855 3.78092 55.4577 3.93495C55.9341 4.04565 56.3157 4.26226 56.6025 4.58475C56.8941 4.90725 57.0399 5.29232 57.0399 5.73997C57.0399 6.45716 56.7726 7.00589 56.2379 7.38615C55.7081 7.7664 54.9571 7.95653 53.9849 7.95653H50.4194ZM51.7683 4.52699V6.88074H53.9995C54.5633 6.88074 54.9838 6.77725 55.2609 6.57028C55.5428 6.3633 55.6838 6.07209 55.6838 5.69665C55.6838 4.91688 55.1053 4.52699 53.9484 4.52699H51.7683ZM51.7683 3.45842H53.511C54.7748 3.45842 55.4067 3.0926 55.4067 2.36097C55.4067 1.62933 54.8088 1.25148 53.613 1.22741H51.7683V3.45842Z" transform="translate(60.1067 36.1572)" fill="#004A7F"/>
<path d="M63.6969 7.95653C63.6191 7.8025 63.556 7.52814 63.5073 7.13344C62.8803 7.77844 62.1317 8.10093 61.2616 8.10093C60.4839 8.10093 59.8447 7.88433 59.344 7.45113C58.8482 7.01311 58.6003 6.45957 58.6003 5.79051C58.6003 4.97704 58.9114 4.34649 59.5336 3.89885C60.1606 3.44639 61.0404 3.22016 62.173 3.22016H63.4855V2.60645C63.4855 2.13955 63.3445 1.76892 63.0626 1.49456C62.7806 1.21538 62.365 1.07579 61.8158 1.07579C61.3345 1.07579 60.9311 1.19613 60.6054 1.4368C60.2797 1.67747 60.1169 1.96868 60.1169 2.31043H58.7607C58.7607 1.92054 58.8992 1.5451 59.1763 1.18409C59.4582 0.818276 59.8374 0.529473 60.3137 0.317684C60.795 0.105895 61.3224 0 61.896 0C62.8049 0 63.5171 0.226229 64.0323 0.678688C64.5476 1.12633 64.8149 1.74485 64.8344 2.53425V6.12985C64.8344 6.84705 64.9267 7.41743 65.1114 7.84101V7.95653H63.6969ZM61.4585 6.9385C61.8814 6.9385 62.2824 6.8302 62.6616 6.6136C63.0407 6.39699 63.3153 6.11541 63.4855 5.76885V4.16599H62.4282C60.7755 4.16599 59.9492 4.64492 59.9492 5.60279C59.9492 6.02155 60.0901 6.34886 60.3721 6.58472C60.654 6.82057 61.0161 6.9385 61.4585 6.9385Z" transform="translate(60.1067 36.1572)" fill="#004A7F"/>
<path d="M68.4217 0.144402V6.8663H71.309V0.144402H72.6579V6.8663H75.538V0.144402H76.8942V7.95653H67.0655V0.144402H68.4217Z" transform="translate(60.1067 36.1572)" fill="#004A7F"/>
<path d="M82.2971 8.10093C81.2277 8.10093 80.3576 7.75437 79.6868 7.06124C79.016 6.3633 78.6806 5.43191 78.6806 4.26707V4.02159C78.6806 3.24663 78.8288 2.55591 79.1253 1.94942C79.4267 1.33812 79.8447 0.861597 80.3794 0.519846C80.919 0.173282 81.5023 0 82.1294 0C83.155 0 83.9522 0.334531 84.5209 1.00359C85.0896 1.67265 85.374 2.63052 85.374 3.87719V4.43313H80.0295C80.0489 5.20327 80.2749 5.82661 80.7076 6.30313C81.145 6.77485 81.6992 7.0107 82.37 7.0107C82.8463 7.0107 83.2498 6.91443 83.5803 6.7219C83.9109 6.52936 84.2001 6.27425 84.448 5.95657L85.2719 6.59194C84.6108 7.59794 83.6192 8.10093 82.2971 8.10093ZM82.1294 1.09745C81.5849 1.09745 81.128 1.2948 80.7586 1.6895C80.3892 2.07938 80.1607 2.62811 80.0732 3.33568H84.0251V3.2346C83.9862 2.55591 83.8015 2.03125 83.471 1.66062C83.1404 1.28517 82.6932 1.09745 82.1294 1.09745Z" transform="translate(60.1067 36.1572)" fill="#004A7F"/>
<path d="M92.0383 1.24907H88.3999V7.95653H87.0437V0.144402H92.0383V1.24907Z" transform="translate(60.1067 36.1572)" fill="#004A7F"/>
<path d="M92.7091 3.97827C92.7091 3.21294 92.8597 2.52462 93.1611 1.91332C93.4674 1.30202 93.8902 0.83031 94.4298 0.498186C94.9742 0.166062 95.594 0 96.2891 0C97.3633 0 98.231 0.368224 98.8921 1.10467C99.558 1.84112 99.891 2.82065 99.891 4.04325V4.13711C99.891 4.89762 99.7427 5.58113 99.4462 6.18761C99.1546 6.78929 98.7341 7.25859 98.1848 7.59553C97.6404 7.93247 97.0134 8.10093 96.3037 8.10093C95.2343 8.10093 94.3666 7.73271 93.7007 6.99626C93.0396 6.25981 92.7091 5.2851 92.7091 4.07213V3.97827ZM94.0652 4.13711C94.0652 5.00352 94.267 5.69905 94.6704 6.22371C95.0787 6.74837 95.6231 7.0107 96.3037 7.0107C96.9891 7.0107 97.5335 6.74597 97.9369 6.21649C98.3404 5.68221 98.5421 4.93613 98.5421 3.97827C98.5421 3.12148 98.3355 2.42835 97.9223 1.89888C97.514 1.3646 96.9696 1.09745 96.2891 1.09745C95.6231 1.09745 95.086 1.35978 94.6777 1.88444C94.2694 2.4091 94.0652 3.15999 94.0652 4.13711Z" transform="translate(60.1067 36.1572)" fill="#004A7F"/>
<path d="M107.868 5.99989L109.705 0.144402H111.149L107.977 9.16229C107.486 10.4619 106.706 11.1117 105.637 11.1117L105.381 11.09L104.878 10.9962V9.91318L105.243 9.94206C105.7 9.94206 106.055 9.8506 106.307 9.66769C106.565 9.48478 106.776 9.15025 106.942 8.6641L107.241 7.86989L104.426 0.144402H105.899L107.868 5.99989Z" transform="translate(60.1067 36.1572)" fill="#004A7F"/>
<path d="M113.832 3.45842H115.728C115.83 2.41873 116.202 1.58361 116.843 0.953051C117.49 0.317684 118.304 0 119.286 0C120.316 0 121.16 0.344157 121.816 1.03247C122.472 1.72079 122.827 2.61608 122.881 3.71834L122.888 4.13711C122.888 4.89762 122.737 5.58353 122.436 6.19483C122.134 6.80613 121.711 7.27784 121.167 7.60997C120.623 7.93728 120 8.10093 119.3 8.10093C118.285 8.10093 117.453 7.77362 116.807 7.119C116.16 6.45957 115.798 5.60519 115.72 4.55587H113.832V7.95653H112.483V0.144402H113.832V3.45842ZM117.055 4.13711C117.055 5.00352 117.256 5.69905 117.66 6.22371C118.068 6.74837 118.615 7.0107 119.3 7.0107C119.986 7.0107 120.528 6.74356 120.926 6.20927C121.33 5.67499 121.532 4.93132 121.532 3.97827C121.532 3.1263 121.327 2.43317 120.919 1.89888C120.511 1.3646 119.966 1.09745 119.286 1.09745C118.615 1.09745 118.076 1.35978 117.667 1.88444C117.259 2.4091 117.055 3.15999 117.055 4.13711Z" transform="translate(60.1067 36.1572)" fill="#004A7F"/>
<path d="M130.412 1.22741H127.766V7.95653H126.417V1.22741H123.821V0.144402H130.412V1.22741Z" transform="translate(60.1067 36.1572)" fill="#004A7F"/>
<path d="M136.479 7.95653C136.401 7.8025 136.338 7.52814 136.289 7.13344C135.662 7.77844 134.914 8.10093 134.044 8.10093C133.266 8.10093 132.627 7.88433 132.126 7.45113C131.63 7.01311 131.382 6.45957 131.382 5.79051C131.382 4.97704 131.693 4.34649 132.315 3.89885C132.943 3.44639 133.822 3.22016 134.955 3.22016H136.267V2.60645C136.267 2.13955 136.126 1.76892 135.844 1.49456C135.563 1.21538 135.147 1.07579 134.598 1.07579C134.116 1.07579 133.713 1.19613 133.387 1.4368C133.062 1.67747 132.899 1.96868 132.899 2.31043H131.543C131.543 1.92054 131.681 1.5451 131.958 1.18409C132.24 0.818276 132.619 0.529473 133.096 0.317684C133.577 0.105895 134.104 0 134.678 0C135.587 0 136.299 0.226229 136.814 0.678688C137.329 1.12633 137.597 1.74485 137.616 2.53425V6.12985C137.616 6.84705 137.709 7.41743 137.893 7.84101V7.95653H136.479ZM134.24 6.9385C134.663 6.9385 135.064 6.8302 135.443 6.6136C135.823 6.39699 136.097 6.11541 136.267 5.76885V4.16599H135.21C133.557 4.16599 132.731 4.64492 132.731 5.60279C132.731 6.02155 132.872 6.34886 133.154 6.58472C133.436 6.82057 133.798 6.9385 134.24 6.9385Z" transform="translate(60.1067 36.1572)" fill="#004A7F"/>
<path d="M17.8494 11.9401C17.8494 14.012 17.4847 15.8286 16.7554 17.3898C16.0261 18.951 14.98 20.1556 13.6173 21.0036C12.2643 21.8517 10.7096 22.2757 8.95348 22.2757C7.21652 22.2757 5.6667 21.8565 4.304 21.0181C2.94131 20.1797 1.8857 18.9847 1.13718 17.4331C0.388656 15.872 0.00959644 14.0795 0 12.0558V11.015C0 8.94304 0.369463 7.12167 1.10839 5.55085C1.85691 3.9704 2.90772 2.76097 4.26082 1.92256C5.62351 1.07451 7.17814 0.65049 8.92469 0.65049C10.6712 0.65049 12.2211 1.07451 13.5742 1.92256C14.9369 2.76097 15.9877 3.9704 16.7266 5.55085C17.4751 7.12167 17.8494 8.93822 17.8494 11.0005V11.9401ZM13.4734 10.9861C13.4734 8.77921 13.0799 7.10239 12.293 5.9556C11.5061 4.80881 10.3833 4.23542 8.92469 4.23542C7.47563 4.23542 6.35764 4.80399 5.57073 5.94115C4.78383 7.06866 4.38557 8.72621 4.37598 10.9138V11.9401C4.37598 14.0891 4.76943 15.7563 5.55634 16.9417C6.34325 18.127 7.47563 18.7197 8.95348 18.7197C10.4025 18.7197 11.5157 18.1511 12.293 17.0139C13.0704 15.8671 13.4638 14.2 13.4734 12.0124V10.9861Z" transform="translate(58 4)" fill="#005EA2"/>
<path d="M26.8173 16.2189H25.1475V21.9866H20.9874V6.3459H25.1475V12.2292H26.6301L30.0273 6.3459H35.2813L30.1856 13.7904L35.7563 21.9866H30.2144L26.8173 16.2189Z" transform="translate(58 4)" fill="#005EA2"/>
<path d="M50.8276 21.9866H46.6531V15.9732H41.4854V21.9866H37.3254V6.3459H41.4854V12.6195H46.6531V6.3459H50.8276V21.9866Z" transform="translate(58 4)" fill="#005EA2"/>
<path d="M63.0774 21.9866C62.8855 21.6107 62.7463 21.1433 62.66 20.5844C61.6523 21.7119 60.3424 22.2757 58.7302 22.2757C57.2044 22.2757 55.9377 21.8324 54.93 20.9458C53.932 20.0592 53.433 18.9413 53.433 17.5922C53.433 15.9346 54.0424 14.6625 55.2611 13.7759C56.4895 12.8893 58.26 12.4412 60.5727 12.4316H62.4872V11.5354C62.4872 10.8126 62.3001 10.2344 61.9258 9.80072C61.5612 9.36706 60.9806 9.15023 60.1841 9.15023C59.4835 9.15023 58.9317 9.31888 58.5287 9.65617C58.1352 9.99346 57.9385 10.456 57.9385 11.0439H53.7785C53.7785 10.138 54.0568 9.2996 54.6133 8.52865C55.1699 7.7577 55.9568 7.15539 56.9741 6.72173C57.9913 6.27844 59.1333 6.05679 60.4 6.05679C62.3193 6.05679 63.8403 6.54345 64.9631 7.51678C66.0955 8.48047 66.6617 9.83927 66.6617 11.5932V18.3727C66.6713 19.8568 66.8776 20.9795 67.2806 21.7408V21.9866H63.0774ZM59.6371 19.0811C60.2513 19.0811 60.8174 18.9461 61.3357 18.6763C61.8539 18.3968 62.2377 18.0258 62.4872 17.5632V14.8745H60.9326C58.8502 14.8745 57.7418 15.5973 57.6074 17.0428L57.593 17.2886C57.593 17.809 57.7754 18.2378 58.14 18.5751C58.5047 18.9124 59.0037 19.0811 59.6371 19.0811Z" transform="translate(58 4)" fill="#005EA2"/>
<path d="M86.5839 14.9757C86.4207 17.2404 85.5859 19.0232 84.0792 20.3242C82.5822 21.6252 80.6053 22.2757 78.1486 22.2757C75.4616 22.2757 73.3456 21.3698 71.8006 19.5581C70.2651 17.7367 69.4974 15.2408 69.4974 12.0702V10.7837C69.4974 8.75994 69.8525 6.97711 70.5626 5.43521C71.2728 3.89331 72.2852 2.71279 73.5999 1.89365C74.9242 1.06488 76.4596 0.65049 78.2062 0.65049C80.6245 0.65049 82.5726 1.30098 84.0504 2.60196C85.5283 3.90294 86.3824 5.72913 86.6127 8.08054H82.2943C82.1887 6.72173 81.8097 5.73877 81.1571 5.13165C80.5141 4.51489 79.5305 4.2065 78.2062 4.2065C76.7667 4.2065 75.6871 4.7269 74.9674 5.76768C74.2573 6.79883 73.8926 8.40337 73.8734 10.5813V12.1714C73.8734 14.4457 74.2141 16.1081 74.8954 17.1585C75.5864 18.2089 76.6708 18.7341 78.1486 18.7341C79.4825 18.7341 80.4758 18.4306 81.1283 17.8234C81.7905 17.2067 82.1695 16.2574 82.2655 14.9757H86.5839Z" transform="translate(58 4)" fill="#005EA2"/>
<path d="M102.073 9.69954H97.0776V21.9866H92.9031V9.69954H87.9946V6.3459H102.073V9.69954Z" transform="translate(58 4)" fill="#005EA2"/>
<path d="M118.195 14.3108C118.195 16.72 117.648 18.6522 116.554 20.1074C115.469 21.5529 114.001 22.2757 112.149 22.2757C110.575 22.2757 109.303 21.7264 108.334 20.6278V28H104.174V6.3459H108.032L108.176 7.87816C109.184 6.66391 110.498 6.05679 112.12 6.05679C114.039 6.05679 115.532 6.76992 116.597 8.19618C117.662 9.62244 118.195 11.5884 118.195 14.094V14.3108ZM114.035 14.0072C114.035 12.5521 113.775 11.4294 113.257 10.6391C112.749 9.84891 112.005 9.45379 111.026 9.45379C109.721 9.45379 108.824 9.95491 108.334 10.9572V17.3609C108.843 18.392 109.75 18.9076 111.055 18.9076C113.041 18.9076 114.035 17.2741 114.035 14.0072Z" transform="translate(58 4)" fill="#005EA2"/>
<path d="M120.138 14.0217C120.138 12.4701 120.435 11.0872 121.03 9.873C121.625 8.65875 122.479 7.71915 123.593 7.05421C124.715 6.38926 126.016 6.05679 127.494 6.05679C129.595 6.05679 131.308 6.70246 132.632 7.9938C133.966 9.28515 134.71 11.0391 134.864 13.2555L134.892 14.3252C134.892 16.7248 134.225 18.6522 132.892 20.1074C131.558 21.5529 129.768 22.2757 127.522 22.2757C125.277 22.2757 123.482 21.5529 122.139 20.1074C120.805 18.6618 120.138 16.6959 120.138 14.2096V14.0217ZM124.298 14.3252C124.298 15.8093 124.576 16.9465 125.133 17.7367C125.689 18.5173 126.486 18.9076 127.522 18.9076C128.53 18.9076 129.317 18.5221 129.883 17.7512C130.449 16.9706 130.732 15.7274 130.732 14.0217C130.732 12.5665 130.449 11.439 129.883 10.6391C129.317 9.83927 128.52 9.43934 127.494 9.43934C126.476 9.43934 125.689 9.83927 125.133 10.6391C124.576 11.4294 124.298 12.6581 124.298 14.3252Z" transform="translate(58 4)" fill="#005EA2"/>
<path d="M146.84 6.3459H151V21.9866H146.84V12.3304L141.629 21.9866H137.455V6.3459H141.629V15.9876L146.84 6.3459ZM149.287 0C149.287 1.28171 148.826 2.31767 147.905 3.1079C146.993 3.89812 145.794 4.29324 144.306 4.29324C142.819 4.29324 141.615 3.90294 140.693 3.12235C139.782 2.34177 139.326 1.30098 139.326 0H142.277C142.277 0.607124 142.454 1.07933 142.809 1.41662C143.174 1.74428 143.673 1.90811 144.306 1.90811C144.93 1.90811 145.42 1.74428 145.775 1.41662C146.13 1.07933 146.307 0.607124 146.307 0H149.287Z" transform="translate(58 4)" fill="#005EA2"/>
<defs>
<linearGradient id="paint0_linear" x2="1" gradientUnits="userSpaceOnUse" gradientTransform="translate(50.0242) scale(50.0242 40.6635) rotate(90)">
<stop stop-color="#00B7E0"/>
<stop offset="1" stop-color="#0094C7"/>
</linearGradient>
</defs>
</svg>
