<?xml version="1.0" encoding="utf-8"?><svg xmlns="http://www.w3.org/2000/svg" xmlns:xlink="http://www.w3.org/1999/xlink"><symbol viewBox="0 0 11 16" id="contacts-address"><path d="M5.501 0C2.463 0 0 2.417 0 5.4c0 1.525 1.515 4.258 1.515 4.258L5.298 16l3.948-6.268S11 7.124 11 5.399C11 2.417 8.538 0 5.501 0zm-.026 8.373c-1.74 0-3.149-1.392-3.149-3.113 0-1.719 1.409-3.11 3.15-3.11 1.738 0 3.15 1.391 3.15 3.11 0 1.72-1.412 3.113-3.15 3.113z"/></symbol><symbol viewBox="0 0 13 13" id="contacts-email"><path d="M1.863 11.177a6.322 6.322 0 0 0 2.128 1.341A7.68 7.68 0 0 0 6.733 13c1.112 0 2.138-.168 3.06-.513.836-.304.116-1.844-.498-1.592-.677.282-1.503.429-2.446.429a5.781 5.781 0 0 1-2.011-.335 4.386 4.386 0 0 1-1.535-.943 4.29 4.29 0 0 1-.995-1.487c-.244-.587-.36-1.257-.36-1.99 0-.692.116-1.352.35-1.939.232-.586.55-1.11.973-1.53a4.425 4.425 0 0 1 1.503-1.015 5.092 5.092 0 0 1 1.959-.367c.667 0 1.28.094 1.831.262a3.78 3.78 0 0 1 1.398.775c.392.346.699.765.92 1.268.223.503.33 1.09.33 1.76a4.6 4.6 0 0 1-.128 1.1c-.085.324-.19.618-.339.848-.137.22-.296.398-.487.524-.222.146-.55.23-.804.146-.318-.104-.254-.544-.233-.806.032-.356.127-.691.2-1.037.117-.566.244-1.121.36-1.676.064-.304.138-.618.202-.922a.634.634 0 0 0-.625-.765h-.465a.635.635 0 0 0-.615.461c-.031.126-.063.23-.063.23-.233-.712-1.09-.91-1.768-.9-.89.01-1.704.46-2.297 1.1-.053.062-.117.125-.17.188a4.03 4.03 0 0 0-.698 1.247c-.17.482-.254.974-.254 1.477 0 .43.063.838.18 1.204.127.378.306.702.54.975.232.272.529.492.878.65.35.156.741.24 1.165.24.317 0 .614-.052.878-.146a3.28 3.28 0 0 0 .688-.346c.16-.105.307-.23.424-.346.074.136.159.251.275.367.297.314.752.471 1.355.471a3.44 3.44 0 0 0 1.377-.283 3.258 3.258 0 0 0 1.153-.859c.318-.377.583-.838.773-1.382.19-.545.286-1.174.286-1.865 0-.943-.18-1.78-.53-2.483a5.199 5.199 0 0 0-1.418-1.77C10.47.954 9.792.608 9.041.367A7.132 7.132 0 0 0 6.733 0c-.921 0-1.8.168-2.615.492A6.844 6.844 0 0 0 1.98 1.865 6.356 6.356 0 0 0 .53 3.928 6.359 6.359 0 0 0 0 6.516c0 .932.159 1.812.487 2.598a5.908 5.908 0 0 0 1.376 2.063zm5.727-4.4c-.074.283-.18.556-.328.807a1.9 1.9 0 0 1-.56.597c-.213.147-.467.22-.784.22a.886.886 0 0 1-.477-.115.908.908 0 0 1-.307-.325 1.518 1.518 0 0 1-.169-.46 2.563 2.563 0 0 1-.053-.462c0-.293.042-.586.127-.89a2.74 2.74 0 0 1 .36-.796c.159-.23.339-.42.561-.566a1.18 1.18 0 0 1 .688-.199c.212 0 .381.032.508.105a.883.883 0 0 1 .307.283c.085.126.138.272.18.43.043.177.064.366.064.544-.01.262-.042.534-.117.828z"/></symbol><symbol viewBox="0 0 11 12" id="contacts-tel"><path d="M4.265 6.048c.298.364.567.63.564.629A8.752 8.752 0 0 0 6.27 8.1c.366.288.94.325 1.253.127.312-.198.912-.6 1.36-.498.378.086.878.375 1.48 1.116 1.42 1.748.148 2.294-.733 2.999-.883.704-3.794-1.04-6.46-3.884C.5 5.117-.504 2.176.234 1.31.974.444 1.59-.84 3.158.765c.666.68.905 1.221.96 1.62.065.474-.363 1.068-.575 1.378-.212.31-.218.91.03 1.313.219.355.453.679.692.972z"/></symbol><symbol viewBox="0 0 139.4 44.7" id="dorohovdesign"><path d="M52.2 19.5V8.1H57c3.6 0 6.1 2.1 6.1 5.7 0 3.5-2.6 5.7-6.1 5.7h-4.8zm7.9-5.7c0-1.8-1.1-3.1-3.1-3.1h-1.9v6.2H57c2 0 3.1-1.4 3.1-3.1m4.1 0c0-3.4 2.6-5.9 6.1-5.9 3.5 0 6.1 2.4 6.1 5.9 0 3.5-2.6 5.9-6.1 5.9-3.5 0-6.1-2.4-6.1-5.9m9.2 0c0-1.9-1.2-3.3-3.1-3.3-1.9 0-3.1 1.4-3.1 3.3 0 1.8 1.2 3.3 3.1 3.3 1.9 0 3.1-1.4 3.1-3.3m11 5.7l-1.9-3.8H81v3.8h-2.9V8.1h5.7c2.5 0 3.9 1.7 3.9 3.8 0 2-1.2 3-2.3 3.4l2.3 4.2h-3.3zm.3-7.6c0-.8-.6-1.2-1.4-1.2H81v2.4h2.3c.8 0 1.4-.4 1.4-1.2m4.2 1.9c0-3.4 2.6-5.9 6.1-5.9 3.5 0 6.1 2.4 6.1 5.9 0 3.5-2.6 5.9-6.1 5.9-3.5 0-6.1-2.4-6.1-5.9m9.1 0c0-1.9-1.2-3.3-3.1-3.3-1.9 0-3.1 1.4-3.1 3.3 0 1.8 1.2 3.3 3.1 3.3 1.9 0 3.1-1.4 3.1-3.3m12.4 5.7v-4.6h-4.7v4.6h-3V8.1h3v4.3h4.7V8.1h2.9v11.4zm4.6-5.7c0-3.4 2.6-5.9 6.1-5.9 3.5 0 6.1 2.4 6.1 5.9 0 3.5-2.6 5.9-6.1 5.9-3.5 0-6.1-2.4-6.1-5.9m9.2 0c0-1.9-1.2-3.3-3.1-3.3-1.9 0-3.1 1.4-3.1 3.3 0 1.8 1.2 3.3 3.1 3.3 1.9 0 3.1-1.4 3.1-3.3m7.3 5.7l-4.3-11.4h3.3l2.8 8.2 2.8-8.2h3.3l-4.2 11.4zm-79.3 17V25.1H57c3.6 0 6.1 2.1 6.1 5.7 0 3.5-2.6 5.7-6.1 5.7h-4.8zm7.9-5.7c0-1.8-1.1-3.1-3.1-3.1h-1.9v6.2H57c2 0 3.1-1.4 3.1-3.1m4.7 5.7V25.1h8.3v2.6h-5.3v1.8H73V32h-5.2v1.9h5.3v2.6zm9.6-1.6l1.5-2.2c.8.8 2.1 1.5 3.6 1.5 1 0 1.6-.4 1.6-.9 0-1.5-6.4-.3-6.4-4.7 0-1.9 1.6-3.6 4.5-3.6 1.8 0 3.4.5 4.6 1.6l-1.6 2.1c-1-.8-2.2-1.2-3.3-1.2-.8 0-1.2.3-1.2.8 0 1.4 6.4.4 6.4 4.6 0 2.3-1.7 3.8-4.7 3.8-2.2 0-3.8-.7-5-1.8m11.5-9.8h2.9v11.3h-2.9zm4.7 5.7c0-3.6 2.8-5.9 6.1-5.9 2.5 0 4.1 1.3 4.8 2.8L99.1 29c-.4-.7-1.3-1.4-2.4-1.4-1.9 0-3.2 1.4-3.2 3.3s1.3 3.3 3.2 3.3c.8 0 1.7-.3 2.1-.7v-.9h-2.6V30h5.5v4.5c-1.2 1.3-2.9 2.2-5 2.2-3.4 0-6.1-2.3-6.1-5.9m20.9 5.7l-4.8-6.6v6.6h-2.9V25.1h3l4.6 6.3v-6.3h2.9v11.4zM17.7 0H0v44.7h17.8c15 0 24.6-8.8 24.6-22.4C42.4 8.7 32.7 0 17.7 0m-.4 35.7h-8V9.5h8c9.3 0 15.7 3.7 15.7 12.7.1 7.5-5.8 13.5-15.7 13.5"/><path d="M19.1 17H17v10.6h2c4 0 6.4-2.4 6.4-5.4 0-3.7-2.6-5.2-6.3-5.2"/></symbol><symbol viewBox="0 0 96.124 96.123" id="fb"><path d="M72.089.02L59.624 0C45.62 0 36.57 9.285 36.57 23.656v10.907H24.037a1.96 1.96 0 0 0-1.96 1.961v15.803a1.96 1.96 0 0 0 1.96 1.96H36.57v39.876a1.96 1.96 0 0 0 1.96 1.96h16.352a1.96 1.96 0 0 0 1.96-1.96V54.287h14.654a1.96 1.96 0 0 0 1.96-1.96l.006-15.803a1.963 1.963 0 0 0-1.961-1.961H56.842v-9.246c0-4.444 1.059-6.7 6.848-6.7l8.397-.003a1.96 1.96 0 0 0 1.959-1.96V1.98A1.96 1.96 0 0 0 72.089.02z"/></symbol><symbol viewBox="0 0 54 37" id="icon-next"><path d="M53.264 16.732l-16.07-16a2.519 2.519 0 0 0-3.55 0c-.98.977-.98 2.56 0 3.536L45.427 16H2.511A2.506 2.506 0 0 0 0 18.5C0 19.88 1.124 21 2.51 21h42.917L33.644 32.732c-.98.977-.98 2.56 0 3.536A2.51 2.51 0 0 0 35.42 37a2.51 2.51 0 0 0 1.775-.732l16.07-16c.98-.977.98-2.56 0-3.536z"/></symbol><symbol viewBox="0 0 54 37" id="icon-prev"><path d="M.736 20.268l16.069 16c.98.976 2.57.976 3.55 0a2.49 2.49 0 0 0 0-3.536L8.574 21H51.49c1.386 0 2.51-1.12 2.51-2.5S52.876 16 51.49 16H8.572L20.356 4.268c.98-.977.98-2.56 0-3.536A2.51 2.51 0 0 0 18.58 0a2.51 2.51 0 0 0-1.775.732l-16.07 16c-.98.977-.98 2.56 0 3.536z"/></symbol><symbol viewBox="0 0 27 44" id="icon-scroll"><path fill-rule="evenodd" clip-rule="evenodd" d="M13.5 0C8.814 0 5.17 1.423 2.76 4.306.353 7.187 0 10.55 0 12.283v19.435c0 1.732.352 5.095 2.76 7.976C5.17 42.577 8.815 44 13.5 44s8.33-1.423 10.74-4.306C26.648 36.813 27 33.45 27 31.718V12.282c0-1.731-.352-5.095-2.76-7.976C21.83 1.423 18.185 0 13.5 0zM2.36 12.283c0-.813.131-3.212 1.498-5.437 1.298-2.113 3.75-4.133 8.462-4.422v4.094a3.645 3.645 0 0 0-2.402 3.44v3.766a3.645 3.645 0 0 0 2.402 3.44v5.325c0 .65.519 1.193 1.18 1.193.661 0 1.18-.543 1.18-1.193v-5.325a3.645 3.645 0 0 0 2.402-3.44V9.959a3.645 3.645 0 0 0-2.402-3.44V2.423c4.713.29 7.163 2.309 8.462 4.422 1.367 2.225 1.498 4.624 1.498 5.437v19.435c0 .83-.137 3.315-1.586 5.579-1.425 2.225-4.17 4.316-9.554 4.316-5.385 0-8.129-2.091-9.554-4.316-1.45-2.264-1.586-4.749-1.586-5.58V12.284zm9.918-2.324c0-.703.558-1.257 1.222-1.257.664 0 1.222.554 1.222 1.257v3.765c0 .702-.558 1.257-1.222 1.257-.664 0-1.222-.555-1.222-1.257V9.959z"/></symbol><symbol viewBox="0 0 16 17" id="icon-search"><path d="M15.757 15.484l-3.944-4.208a6.949 6.949 0 0 0 1.57-4.412C13.382 3.079 10.38 0 6.69 0 3.001 0 0 3.08 0 6.864s3.002 6.863 6.691 6.863a6.505 6.505 0 0 0 3.834-1.242l3.974 4.24a.856.856 0 0 0 1.234.025.913.913 0 0 0 .024-1.266zM6.69 1.791c2.727 0 4.946 2.275 4.946 5.073 0 2.797-2.219 5.073-4.946 5.073S1.746 9.66 1.746 6.864c0-2.798 2.218-5.073 4.945-5.073z"/></symbol><symbol viewBox="0 0 97.395 97.395" id="inst"><path d="M12.501 0h72.393c6.875 0 12.5 5.09 12.5 12.5v72.395c0 7.41-5.625 12.5-12.5 12.5H12.501C5.624 97.395 0 92.305 0 84.895V12.5C0 5.09 5.624 0 12.501 0zm58.447 10.821a4.395 4.395 0 0 0-4.383 4.385v10.495a4.396 4.396 0 0 0 4.383 4.385h11.008a4.398 4.398 0 0 0 4.385-4.385V15.206a4.397 4.397 0 0 0-4.385-4.385H70.948zm15.439 30.367h-8.572a28.486 28.486 0 0 1 1.25 8.355c0 16.2-13.556 29.332-30.275 29.332-16.718 0-30.272-13.132-30.272-29.332 0-2.904.438-5.708 1.25-8.355h-8.945v41.141a3.884 3.884 0 0 0 3.872 3.872h67.822a3.883 3.883 0 0 0 3.872-3.872V41.188h-.002zM48.789 29.533c-10.802 0-19.56 8.485-19.56 18.953s8.758 18.953 19.56 18.953c10.803 0 19.562-8.485 19.562-18.953s-8.758-18.953-19.562-18.953z"/></symbol><symbol viewBox="0 0 209 52" id="logotip"><path d="M27.128 36.474c-1.792 9.07-8.38 14.13-11.449 15.526 9.209-12.322 7.218-13.801 6.969-24.152-7.218-4.929-7.715-9.857-6.222-14.54-.249 6.654 6.72 12.076 11.2 12.076 4.48 0 7.963-3.45 9.954-6.654.25 4.19-3.235 7.886-6.47 8.625-1.742 11.583 3.235 15.28 5.724 20.702-2.24-.74-8.462-6.654-9.706-11.583z"/><path d="M32.603 18.976c0 2.45-2.006 4.436-4.48 4.436-2.474 0-4.48-1.986-4.48-4.436s2.006-4.436 4.48-4.436c2.474 0 4.48 1.986 4.48 4.436z"/><path fill-rule="evenodd" clip-rule="evenodd" d="M21.652 37.953v-3.944l-7.715 1.48V6.9l24.639-2.464v26.37l-5.724 1.232v3.697l8.462-1.725v-3.178l8.71.467V0l-8.71 3.45V0L10.453 3.204v2.879L0 4.436v36.227l10.453-4.234v3.742l11.2-2.218zM8.711 8.157l1.742.222v12.589l-1.742.152V8.157zm-.996-.128l-4.977-.636v14.249l4.977-.435V8.029zM2.738 22.631v14.582l4.977-1.908V22.197l-4.977.434zM8.71 34.924l1.742-.668V21.957l-1.742.152v12.815zM43.553 4.59l-2.24.832v11.206l2.24-.37V4.59zm.996-.37v11.874l2.738-.452V3.204L44.549 4.22zm2.738 12.422l-2.738.452v12.12l2.738.113V16.642zm-3.734 12.531V17.258l-2.24.37V29.08l2.24.092z"/><path d="M65.101 37.406h-3.638v6.708h-1.356v-7.812H65.1v1.104zm6.045 6.708c-.078-.154-.141-.429-.19-.823-.627.645-1.376.967-2.246.967-.777 0-1.416-.216-1.917-.65a2.12 2.12 0 0 1-.744-1.66c0-.814.311-1.444.933-1.892.627-.452 1.507-.679 2.64-.679h1.312v-.613c0-.467-.14-.838-.423-1.112-.281-.28-.697-.419-1.246-.419-.482 0-.885.12-1.21.361-.327.24-.49.532-.49.874H66.21c0-.39.138-.766.415-1.127a2.878 2.878 0 0 1 1.138-.866 3.884 3.884 0 0 1 1.582-.318c.909 0 1.62.227 2.136.679.515.448.783 1.066.802 1.855v3.596c0 .717.093 1.288.277 1.711v.116h-1.414zm-2.239-1.018c.423 0 .824-.109 1.203-.325.38-.217.654-.498.824-.845v-1.603h-1.057c-1.653 0-2.479.48-2.479 1.437 0 .419.141.746.423.982.282.236.644.354 1.086.354zm12.155-2.802c0 1.19-.275 2.147-.824 2.874-.55.727-1.293 1.09-2.231 1.09-.958 0-1.711-.3-2.26-.902v3.761h-1.35V36.302h1.233l.066.866c.549-.674 1.312-1.01 2.289-1.01.948 0 1.696.353 2.246 1.06.554.708.83 1.692.83 2.954v.122zm-1.349-.151c0-.881-.19-1.577-.569-2.087-.379-.51-.899-.765-1.56-.765-.817 0-1.43.358-1.837 1.076v3.732c.403.713 1.02 1.069 1.852 1.069.646 0 1.159-.253 1.538-.758.384-.51.576-1.266.576-2.267zm7.94 3.971c-.078-.154-.14-.429-.19-.823-.626.645-1.375.967-2.245.967-.778 0-1.417-.216-1.918-.65a2.12 2.12 0 0 1-.743-1.66c0-.814.31-1.444.933-1.892.627-.452 1.507-.679 2.64-.679h1.312v-.613c0-.467-.141-.838-.423-1.112-.282-.28-.698-.419-1.247-.419-.481 0-.885.12-1.21.361-.326.24-.489.532-.489.874h-1.356c0-.39.139-.766.416-1.127a2.877 2.877 0 0 1 1.137-.866 3.884 3.884 0 0 1 1.582-.318c.91 0 1.621.227 2.137.679.515.448.782 1.066.802 1.855v3.596c0 .717.092 1.288.277 1.711v.116h-1.415zm-2.238-1.018c.423 0 .824-.109 1.203-.325.38-.217.654-.498.824-.845v-1.603h-1.057c-1.653 0-2.48.48-2.48 1.437 0 .419.141.746.423.982.282.236.644.354 1.087.354zm11.935 1.018h-1.348v-3.336h-3.624v3.336h-1.356v-7.812h1.356v3.386h3.624v-3.386h1.349v7.812zm8.036-6.729h-2.647v6.729h-1.349v-6.73h-2.596v-1.082h6.592v1.083zm5.14 6.729v-7.812h3.077c1.05 0 1.854.182 2.413.548.564.361.846.893.846 1.596 0 .361-.109.688-.328.982-.219.289-.542.51-.97.664.477.11.858.328 1.145.65.292.323.438.708.438 1.155 0 .717-.268 1.266-.802 1.646-.53.38-1.281.57-2.253.57h-3.566zm1.349-3.43v2.354h2.231c.564 0 .984-.103 1.262-.31.281-.208.422-.499.422-.874 0-.78-.578-1.17-1.735-1.17h-2.18zm0-1.068h1.743c1.263 0 1.895-.366 1.895-1.098 0-.731-.598-1.11-1.793-1.133h-1.845v2.23zm11.929 4.498c-.078-.154-.141-.429-.19-.823-.627.645-1.376.967-2.246.967-.777 0-1.417-.216-1.917-.65a2.12 2.12 0 0 1-.744-1.66c0-.814.311-1.444.933-1.892.627-.452 1.507-.679 2.64-.679h1.312v-.613c0-.467-.141-.838-.423-1.112-.282-.28-.697-.419-1.247-.419-.481 0-.884.12-1.21.361-.326.24-.488.532-.488.874h-1.357c0-.39.139-.766.416-1.127a2.88 2.88 0 0 1 1.137-.866 3.89 3.89 0 0 1 1.583-.318c.909 0 1.621.227 2.136.679.515.448.783 1.066.802 1.855v3.596c0 .717.092 1.288.277 1.711v.116h-1.414zm-2.239-1.018c.423 0 .824-.109 1.203-.325.379-.217.654-.498.824-.845v-1.603h-1.057c-1.653 0-2.479.48-2.479 1.437 0 .419.141.746.423.982.282.236.644.354 1.086.354zm6.963-6.794v6.721h2.888v-6.721h1.349v6.721h2.88v-6.721h1.356v7.812h-9.829v-7.812h1.356zm13.876 7.956c-1.07 0-1.94-.346-2.611-1.04-.67-.698-1.006-1.629-1.006-2.794v-.245c0-.775.149-1.466.445-2.072a3.473 3.473 0 0 1 1.254-1.43 3.178 3.178 0 0 1 1.75-.52c1.026 0 1.823.335 2.392 1.004.568.669.853 1.627.853 2.873v.556h-5.345c.02.77.246 1.394.678 1.87.438.472.992.708 1.663.708.476 0 .879-.096 1.21-.289.331-.192.62-.447.868-.765l.824.635c-.661 1.006-1.653 1.51-2.975 1.51zm-.168-7.003c-.544 0-1.001.197-1.371.592-.369.39-.598.938-.685 1.646h3.952v-.101c-.039-.679-.224-1.204-.554-1.574-.331-.376-.778-.563-1.342-.563zm9.909.151h-3.638v6.708h-1.357v-7.812h4.995v1.104zm.671 2.73c0-.766.15-1.454.452-2.066.306-.61.729-1.083 1.268-1.415.545-.332 1.165-.498 1.86-.498 1.074 0 1.942.368 2.603 1.105.666.736.999 1.716.999 2.938v.094c0 .76-.149 1.444-.445 2.05a3.304 3.304 0 0 1-1.261 1.409c-.545.337-1.172.505-1.882.505-1.069 0-1.937-.368-2.603-1.105-.661-.736-.991-1.71-.991-2.924v-.093zm1.356.158c0 .867.202 1.562.605 2.087.408.525.953.787 1.633.787.686 0 1.23-.265 1.634-.794.403-.535.605-1.28.605-2.239 0-.856-.207-1.55-.62-2.079-.408-.534-.953-.801-1.633-.801-.666 0-1.203.262-1.612.787-.408.524-.612 1.275-.612 2.252zm13.802 1.863l1.838-5.855h1.443l-3.171 9.017c-.491 1.3-1.271 1.95-2.341 1.95l-.255-.022-.503-.094V46.07l.365.03c.456 0 .811-.092 1.064-.275.258-.183.469-.518.634-1.004l.299-.794-2.814-7.725h1.473l1.968 5.855zm5.965-2.541h1.895c.102-1.04.474-1.875 1.116-2.506.646-.635 1.461-.953 2.443-.953 1.03 0 1.873.344 2.53 1.033.656.688 1.011 1.583 1.064 2.686l.007.418c0 .76-.15 1.447-.452 2.058a3.344 3.344 0 0 1-1.268 1.415c-.545.327-1.167.491-1.867.491-1.016 0-1.847-.327-2.493-.982-.647-.66-1.009-1.514-1.087-2.563h-1.888v3.4h-1.349v-7.811h1.349v3.314zm3.222.678c0 .867.202 1.562.606 2.087.408.525.955.787 1.64.787.686 0 1.228-.267 1.626-.801.404-.535.605-1.278.605-2.231 0-.853-.204-1.546-.612-2.08-.408-.534-.953-.801-1.633-.801-.671 0-1.211.262-1.619.787-.408.524-.613 1.275-.613 2.252zm13.358-2.909h-2.647v6.729h-1.349v-6.73h-2.595v-1.082h6.591v1.083zm6.066 6.729c-.077-.154-.14-.429-.189-.823-.627.645-1.376.967-2.246.967-.778 0-1.417-.216-1.917-.65a2.12 2.12 0 0 1-.744-1.66c0-.814.311-1.444.933-1.892.627-.452 1.507-.679 2.64-.679h1.312v-.613c0-.467-.141-.838-.423-1.112-.282-.28-.697-.419-1.247-.419-.481 0-.884.12-1.21.361-.326.24-.489.532-.489.874h-1.356c0-.39.139-.766.416-1.127a2.88 2.88 0 0 1 1.137-.866 3.89 3.89 0 0 1 1.583-.318c.909 0 1.621.227 2.136.679.515.448.783 1.066.802 1.855v3.596c0 .717.092 1.288.277 1.711v.116h-1.415zm-2.238-1.018c.423 0 .824-.109 1.203-.325.379-.217.654-.498.824-.845v-1.603h-1.057c-1.653 0-2.479.48-2.479 1.437 0 .419.141.746.423.982.282.236.644.354 1.086.354zM75.85 15.94c0 2.072-.365 3.889-1.095 5.45-.729 1.561-1.775 2.766-3.138 3.614-1.353.848-2.907 1.272-4.663 1.272-1.737 0-3.287-.42-4.65-1.258-1.363-.838-2.418-2.033-3.167-3.585-.748-1.561-1.127-3.354-1.137-5.377v-1.041c0-2.072.37-3.893 1.108-5.464.749-1.58 1.8-2.79 3.153-3.628 1.362-.848 2.917-1.273 4.664-1.273 1.746 0 3.296.425 4.65 1.273 1.362.838 2.413 2.047 3.152 3.628.748 1.57 1.122 3.387 1.122 5.45v.94zm-4.377-.954c0-2.207-.393-3.884-1.18-5.03-.787-1.147-1.91-1.72-3.368-1.72-1.45 0-2.567.568-3.354 1.705-.787 1.128-1.185 2.785-1.195 4.973v1.026c0 2.15.393 3.816 1.18 5.002.787 1.185 1.92 1.778 3.398 1.778 1.449 0 2.562-.569 3.339-1.706.777-1.147 1.17-2.814 1.18-5.002v-1.026zm13.344 5.233h-1.67v5.768h-4.16V10.346h4.16v5.883h1.483l3.397-5.883h5.254l-5.095 7.444 5.57 8.197h-5.542l-3.397-5.768zm24.011 5.768h-4.175v-6.014h-5.168v6.014h-4.16V10.346h4.16v6.273h5.168v-6.273h4.175v15.64zm12.249 0c-.192-.376-.331-.844-.417-1.403-1.008 1.128-2.318 1.692-3.93 1.692-1.526 0-2.792-.444-3.8-1.33-.998-.887-1.497-2.005-1.497-3.354 0-1.657.609-2.93 1.828-3.816 1.228-.887 2.999-1.335 5.312-1.344h1.914v-.897c0-.722-.187-1.3-.561-1.734-.365-.434-.945-.65-1.742-.65-.7 0-1.252.168-1.655.505-.394.337-.59.8-.59 1.388h-4.161c0-.906.279-1.744.835-2.515.557-.771 1.344-1.374 2.361-1.807 1.017-.444 2.159-.665 3.426-.665 1.919 0 3.44.486 4.563 1.46 1.132.963 1.699 2.322 1.699 4.076v6.78c.009 1.484.216 2.607.619 3.368v.246h-4.204zm-3.44-2.906c.614 0 1.18-.135 1.699-.405.518-.28.902-.65 1.151-1.113v-2.688h-1.554c-2.083 0-3.191.722-3.326 2.168l-.014.246c0 .52.182.949.547 1.286.365.337.864.506 1.497.506zm26.947-4.105c-.163 2.264-.998 4.047-2.505 5.348-1.497 1.301-3.474 1.952-5.93 1.952-2.687 0-4.803-.906-6.348-2.718-1.536-1.821-2.304-4.317-2.304-7.488v-1.286c0-2.024.355-3.807 1.066-5.349.71-1.542 1.722-2.722 3.037-3.541 1.324-.83 2.86-1.244 4.606-1.244 2.419 0 4.367.651 5.844 1.952 1.478 1.3 2.332 3.127 2.563 5.479h-4.319c-.105-1.36-.484-2.342-1.137-2.95-.643-.616-1.626-.925-2.951-.925-1.439 0-2.519.52-3.239 1.562-.71 1.03-1.074 2.635-1.094 4.813v1.59c0 2.275.341 3.937 1.022 4.988.691 1.05 1.776 1.575 3.254 1.575 1.334 0 2.327-.303 2.979-.91.662-.617 1.042-1.567 1.137-2.848h4.319zm15.489-5.276h-4.995v12.287h-4.175V13.7h-4.908v-3.354h14.078V13.7zm16.122 4.61c0 2.41-.547 4.342-1.641 5.797-1.085 1.446-2.553 2.169-4.405 2.169-1.574 0-2.846-.55-3.815-1.648V32h-4.16V10.346h3.858l.144 1.532c1.008-1.214 2.322-1.821 3.944-1.821 1.919 0 3.412.713 4.477 2.14 1.065 1.425 1.598 3.391 1.598 5.897v.217zm-4.16-.303c0-1.455-.26-2.578-.778-3.368-.508-.79-1.252-1.185-2.231-1.185-1.305 0-2.202.5-2.692 1.503v6.404c.509 1.031 1.416 1.547 2.721 1.547 1.986 0 2.98-1.634 2.98-4.9zm6.103.015c0-1.552.297-2.935.892-4.149s1.449-2.154 2.563-2.819c1.122-.665 2.423-.997 3.901-.997 2.101 0 3.814.646 5.138 1.937 1.334 1.291 2.078 3.045 2.232 5.262l.028 1.07c0 2.399-.667 4.326-2 5.781-1.334 1.446-3.124 2.169-5.37 2.169-2.245 0-4.04-.723-5.383-2.169-1.334-1.445-2.001-3.411-2.001-5.897v-.188zm4.16.303c0 1.484.278 2.622.835 3.412.556.78 1.353 1.17 2.389 1.17 1.008 0 1.795-.385 2.361-1.156.566-.78.849-2.024.849-3.73 0-1.454-.283-2.582-.849-3.382-.566-.8-1.363-1.2-2.389-1.2-1.018 0-1.805.4-2.361 1.2-.557.79-.835 2.02-.835 3.686zm22.542-7.979H209v15.64h-4.16V16.33l-5.211 9.657h-4.174V10.346h4.174v9.642l5.211-9.642zM207.287 4c0 1.282-.461 2.318-1.382 3.108-.912.79-2.111 1.185-3.599 1.185-1.487 0-2.691-.39-3.613-1.17-.911-.781-1.367-1.822-1.367-3.123h2.951c0 .607.177 1.08.532 1.417.365.327.864.491 1.497.491.624 0 1.114-.164 1.469-.491.355-.338.532-.81.532-1.417h2.98z"/></symbol><symbol viewBox="0 0 12 12" id="modal-close"><path d="M11.414 2.414a1.414 1.414 0 1 0-2-2l-3.5 3.5-3.5-3.5a1.414 1.414 0 1 0-2 2l3.5 3.5-3.5 3.5a1.414 1.414 0 0 0 2 2l3.5-3.5 3.5 3.5a1.414 1.414 0 1 0 2-2l-3.5-3.5 3.5-3.5z"/></symbol><symbol viewBox="0 0 7 4" id="navbar-dropdown"><path d="M3.5 4a.488.488 0 0 1-.347-.144L.143.84a.492.492 0 0 1 0-.695.49.49 0 0 1 .694 0L3.5 2.814 6.163.144a.49.49 0 0 1 .693 0 .492.492 0 0 1 0 .695l-3.01 3.017A.488.488 0 0 1 3.5 4z"/></symbol><symbol viewBox="0 0 11 17" id="pagin-next"><path fill-rule="evenodd" clip-rule="evenodd" d="M.9.98A1.5 1.5 0 0 0 .98 3.1l5.816 5.4-5.817 5.4a1.5 1.5 0 0 0 2.042 2.2l7-6.5a1.5 1.5 0 0 0 0-2.2l-7-6.5A1.5 1.5 0 0 0 .9.98z"/></symbol><symbol viewBox="0 0 11 17" id="pagin-prev"><path fill-rule="evenodd" clip-rule="evenodd" d="M10.1.98a1.5 1.5 0 0 1-.08 2.12L4.205 8.5l5.817 5.4a1.5 1.5 0 0 1-2.042 2.2l-7-6.5a1.5 1.5 0 0 1 0-2.2l7-6.5a1.5 1.5 0 0 1 2.12.08z"/></symbol><symbol viewBox="0 0 44 44" id="view"><path fill-rule="evenodd" clip-rule="evenodd" d="M43 22c0 11.598-9.402 21-21 21S1 33.598 1 22 10.402 1 22 1s21 9.402 21 21zm1 0c0 12.15-9.85 22-22 22S0 34.15 0 22 9.85 0 22 0s22 9.85 22 22zm-4.968 0c0 9.407-7.625 17.032-17.032 17.032S4.968 31.407 4.968 22 12.593 4.968 22 4.968 39.032 12.593 39.032 22zm-11.443.798h-4.79v4.79a.798.798 0 1 1-1.597 0v-4.79h-4.79a.798.798 0 1 1 0-1.597h4.79v-4.79a.798.798 0 0 1 1.596 0v4.79h4.79a.799.799 0 0 1 0 1.597z"/></symbol><symbol viewBox="0 0 304.36 304.36" id="vk"><path d="M261.945 175.576c10.096 9.857 20.752 19.131 29.807 29.982 4 4.822 7.787 9.798 10.684 15.394 4.105 7.955.387 16.709-6.746 17.184l-44.34-.02c-11.436.949-20.559-3.655-28.23-11.474-6.139-6.253-11.824-12.908-17.727-19.372-2.42-2.642-4.953-5.128-7.979-7.093-6.053-3.929-11.307-2.726-14.766 3.587-3.523 6.421-4.322 13.531-4.668 20.687-.475 10.441-3.631 13.186-14.119 13.664-22.414 1.057-43.686-2.334-63.447-13.641-17.422-9.968-30.932-24.04-42.691-39.971-22.895-31.021-40.428-65.108-56.186-100.15C-2.01 76.458.584 72.22 9.295 72.07c14.465-.281 28.928-.261 43.41-.02 5.879.086 9.771 3.458 12.041 9.012 7.826 19.243 17.402 37.551 29.422 54.521 3.201 4.518 6.465 9.036 11.113 12.216 5.142 3.521 9.057 2.354 11.476-3.374 1.535-3.632 2.207-7.544 2.553-11.434 1.146-13.383 1.297-26.743-.713-40.079-1.234-8.323-5.922-13.711-14.227-15.286-4.238-.803-3.607-2.38-1.555-4.799 3.564-4.172 6.916-6.769 13.598-6.769h50.111c7.889 1.557 9.641 5.101 10.721 13.039l.043 55.663c-.086 3.073 1.535 12.192 7.07 14.226 4.43 1.448 7.35-2.096 10.008-4.905 11.998-12.734 20.561-27.783 28.211-43.366 3.395-6.852 6.314-13.968 9.143-21.078 2.096-5.276 5.385-7.872 11.328-7.757l48.229.043c1.43 0 2.877.021 4.262.258 8.127 1.385 10.354 4.881 7.844 12.817-3.955 12.451-11.65 22.827-19.174 33.251-8.043 11.129-16.645 21.877-24.621 33.072-7.328 10.223-6.746 15.376 2.357 24.255zm0 0" fill-rule="evenodd" clip-rule="evenodd"/></symbol></svg>