<?xml version="1.0" encoding="utf-8"?><svg xmlns="http://www.w3.org/2000/svg" xmlns:xlink="http://www.w3.org/1999/xlink"><symbol viewBox="0 0 11 16" id="contacts-address"><path d="M5.501 0C2.463 0 0 2.417 0 5.4c0 1.525 1.515 4.258 1.515 4.258L5.298 16l3.948-6.268S11 7.124 11 5.399C11 2.417 8.538 0 5.501 0zm-.026 8.373c-1.74 0-3.149-1.392-3.149-3.113 0-1.719 1.409-3.11 3.15-3.11 1.738 0 3.15 1.391 3.15 3.11 0 1.72-1.412 3.113-3.15 3.113z"/></symbol><symbol viewBox="0 0 13 13" id="contacts-email"><path d="M1.863 11.177a6.322 6.322 0 0 0 2.128 1.341A7.68 7.68 0 0 0 6.733 13c1.112 0 2.138-.168 3.06-.513.836-.304.116-1.844-.498-1.592-.677.282-1.503.429-2.446.429a5.781 5.781 0 0 1-2.011-.335 4.386 4.386 0 0 1-1.535-.943 4.29 4.29 0 0 1-.995-1.487c-.244-.587-.36-1.257-.36-1.99 0-.692.116-1.352.35-1.939.232-.586.55-1.11.973-1.53a4.425 4.425 0 0 1 1.503-1.015 5.092 5.092 0 0 1 1.959-.367c.667 0 1.28.094 1.831.262a3.78 3.78 0 0 1 1.398.775c.392.346.699.765.92 1.268.223.503.33 1.09.33 1.76a4.6 4.6 0 0 1-.128 1.1c-.085.324-.19.618-.339.848-.137.22-.296.398-.487.524-.222.146-.55.23-.804.146-.318-.104-.254-.544-.233-.806.032-.356.127-.691.2-1.037.117-.566.244-1.121.36-1.676.064-.304.138-.618.202-.922a.634.634 0 0 0-.625-.765h-.465a.635.635 0 0 0-.615.461c-.031.126-.063.23-.063.23-.233-.712-1.09-.91-1.768-.9-.89.01-1.704.46-2.297 1.1-.053.062-.117.125-.17.188a4.03 4.03 0 0 0-.698 1.247c-.17.482-.254.974-.254 1.477 0 .43.063.838.18 1.204.127.378.306.702.54.975.232.272.529.492.878.65.35.156.741.24 1.165.24.317 0 .614-.052.878-.146a3.28 3.28 0 0 0 .688-.346c.16-.105.307-.23.424-.346.074.136.159.251.275.367.297.314.752.471 1.355.471a3.44 3.44 0 0 0 1.377-.283 3.258 3.258 0 0 0 1.153-.859c.318-.377.583-.838.773-1.382.19-.545.286-1.174.286-1.865 0-.943-.18-1.78-.53-2.483a5.199 5.199 0 0 0-1.418-1.77C10.47.954 9.792.608 9.041.367A7.132 7.132 0 0 0 6.733 0c-.921 0-1.8.168-2.615.492A6.844 6.844 0 0 0 1.98 1.865 6.356 6.356 0 0 0 .53 3.928 6.359 6.359 0 0 0 0 6.516c0 .932.159 1.812.487 2.598a5.908 5.908 0 0 0 1.376 2.063zm5.727-4.4c-.074.283-.18.556-.328.807a1.9 1.9 0 0 1-.56.597c-.213.147-.467.22-.784.22a.886.886 0 0 1-.477-.115.908.908 0 0 1-.307-.325 1.518 1.518 0 0 1-.169-.46 2.563 2.563 0 0 1-.053-.462c0-.293.042-.586.127-.89a2.74 2.74 0 0 1 .36-.796c.159-.23.339-.42.561-.566a1.18 1.18 0 0 1 .688-.199c.212 0 .381.032.508.105a.883.883 0 0 1 .307.283c.085.126.138.272.18.43.043.177.064.366.064.544-.01.262-.042.534-.117.828z"/></symbol><symbol viewBox="0 0 11 12" id="contacts-tel"><path d="M4.265 6.048c.298.364.567.63.564.629A8.752 8.752 0 0 0 6.27 8.1c.366.288.94.325 1.253.127.312-.198.912-.6 1.36-.498.378.086.878.375 1.48 1.116 1.42 1.748.148 2.294-.733 2.999-.883.704-3.794-1.04-6.46-3.884C.5 5.117-.504 2.176.234 1.31.974.444 1.59-.84 3.158.765c.666.68.905 1.221.96 1.62.065.474-.363 1.068-.575 1.378-.212.31-.218.91.03 1.313.219.355.453.679.692.972z"/></symbol><symbol viewBox="0 0 139.4 44.7" id="dorohovdesign"><path d="M52.2 19.5V8.1H57c3.6 0 6.1 2.1 6.1 5.7 0 3.5-2.6 5.7-6.1 5.7h-4.8zm7.9-5.7c0-1.8-1.1-3.1-3.1-3.1h-1.9v6.2H57c2 0 3.1-1.4 3.1-3.1m4.1 0c0-3.4 2.6-5.9 6.1-5.9 3.5 0 6.1 2.4 6.1 5.9 0 3.5-2.6 5.9-6.1 5.9-3.5 0-6.1-2.4-6.1-5.9m9.2 0c0-1.9-1.2-3.3-3.1-3.3-1.9 0-3.1 1.4-3.1 3.3 0 1.8 1.2 3.3 3.1 3.3 1.9 0 3.1-1.4 3.1-3.3m11 5.7l-1.9-3.8H81v3.8h-2.9V8.1h5.7c2.5 0 3.9 1.7 3.9 3.8 0 2-1.2 3-2.3 3.4l2.3 4.2h-3.3zm.3-7.6c0-.8-.6-1.2-1.4-1.2H81v2.4h2.3c.8 0 1.4-.4 1.4-1.2m4.2 1.9c0-3.4 2.6-5.9 6.1-5.9 3.5 0 6.1 2.4 6.1 5.9 0 3.5-2.6 5.9-6.1 5.9-3.5 0-6.1-2.4-6.1-5.9m9.1 0c0-1.9-1.2-3.3-3.1-3.3-1.9 0-3.1 1.4-3.1 3.3 0 1.8 1.2 3.3 3.1 3.3 1.9 0 3.1-1.4 3.1-3.3m12.4 5.7v-4.6h-4.7v4.6h-3V8.1h3v4.3h4.7V8.1h2.9v11.4zm4.6-5.7c0-3.4 2.6-5.9 6.1-5.9 3.5 0 6.1 2.4 6.1 5.9 0 3.5-2.6 5.9-6.1 5.9-3.5 0-6.1-2.4-6.1-5.9m9.2 0c0-1.9-1.2-3.3-3.1-3.3-1.9 0-3.1 1.4-3.1 3.3 0 1.8 1.2 3.3 3.1 3.3 1.9 0 3.1-1.4 3.1-3.3m7.3 5.7l-4.3-11.4h3.3l2.8 8.2 2.8-8.2h3.3l-4.2 11.4zm-79.3 17V25.1H57c3.6 0 6.1 2.1 6.1 5.7 0 3.5-2.6 5.7-6.1 5.7h-4.8zm7.9-5.7c0-1.8-1.1-3.1-3.1-3.1h-1.9v6.2H57c2 0 3.1-1.4 3.1-3.1m4.7 5.7V25.1h8.3v2.6h-5.3v1.8H73V32h-5.2v1.9h5.3v2.6zm9.6-1.6l1.5-2.2c.8.8 2.1 1.5 3.6 1.5 1 0 1.6-.4 1.6-.9 0-1.5-6.4-.3-6.4-4.7 0-1.9 1.6-3.6 4.5-3.6 1.8 0 3.4.5 4.6 1.6l-1.6 2.1c-1-.8-2.2-1.2-3.3-1.2-.8 0-1.2.3-1.2.8 0 1.4 6.4.4 6.4 4.6 0 2.3-1.7 3.8-4.7 3.8-2.2 0-3.8-.7-5-1.8m11.5-9.8h2.9v11.3h-2.9zm4.7 5.7c0-3.6 2.8-5.9 6.1-5.9 2.5 0 4.1 1.3 4.8 2.8L99.1 29c-.4-.7-1.3-1.4-2.4-1.4-1.9 0-3.2 1.4-3.2 3.3s1.3 3.3 3.2 3.3c.8 0 1.7-.3 2.1-.7v-.9h-2.6V30h5.5v4.5c-1.2 1.3-2.9 2.2-5 2.2-3.4 0-6.1-2.3-6.1-5.9m20.9 5.7l-4.8-6.6v6.6h-2.9V25.1h3l4.6 6.3v-6.3h2.9v11.4zM17.7 0H0v44.7h17.8c15 0 24.6-8.8 24.6-22.4C42.4 8.7 32.7 0 17.7 0m-.4 35.7h-8V9.5h8c9.3 0 15.7 3.7 15.7 12.7.1 7.5-5.8 13.5-15.7 13.5"/><path d="M19.1 17H17v10.6h2c4 0 6.4-2.4 6.4-5.4 0-3.7-2.6-5.2-6.3-5.2"/></symbol><symbol viewBox="0 0 96.124 96.123" id="fb"><path d="M72.089.02L59.624 0C45.62 0 36.57 9.285 36.57 23.656v10.907H24.037a1.96 1.96 0 0 0-1.96 1.961v15.803a1.96 1.96 0 0 0 1.96 1.96H36.57v39.876a1.96 1.96 0 0 0 1.96 1.96h16.352a1.96 1.96 0 0 0 1.96-1.96V54.287h14.654a1.96 1.96 0 0 0 1.96-1.96l.006-15.803a1.963 1.963 0 0 0-1.961-1.961H56.842v-9.246c0-4.444 1.059-6.7 6.848-6.7l8.397-.003a1.96 1.96 0 0 0 1.959-1.96V1.98A1.96 1.96 0 0 0 72.089.02z"/></symbol><symbol viewBox="0 0 84 80" fill="none" id="icon-adv1"><circle cx="40" cy="40" r="40" fill="#D1F1F8"/><path d="M32.836 38.164a1.368 1.368 0 1 0 .001 2.735 1.368 1.368 0 0 0-.001-2.735z" fill="#00AEF3"/><path d="M82.055 21.758c-14.899 0-22.905-7.961-25.536-10.577-.536-.533-.805-.8-1.088-.976-.441-.273-1-.273-1.44 0-.195.12-.352.274-.731.645-.975.951-3.256 3.18-6.783 5.386-5.86 3.664-12.29 5.522-19.11 5.522-.755 0-1.367.612-1.367 1.367v17.936c0 8.61 2.716 16.813 7.856 23.72 5.573 7.49 12.84 12.874 20.462 15.161a1.369 1.369 0 0 0 .786 0c7.622-2.287 14.89-7.671 20.462-15.16 5.14-6.908 7.856-15.11 7.856-23.72V23.124c0-.755-.612-1.367-1.367-1.367zM80.687 41.06c0 8.018-2.529 15.656-7.314 22.088-5.128 6.89-11.741 11.867-18.662 14.053-6.92-2.186-13.534-7.162-18.662-14.052-4.785-6.433-7.315-14.07-7.315-22.089V24.47c6.833-.233 13.283-2.22 19.193-5.915a41.292 41.292 0 0 0 6.79-5.309c2.868 2.848 11.046 10.766 25.97 11.226v16.59z" fill="#00AEF3"/><path d="M76.737 26.938c-7.526-.833-14.665-3.878-21.22-9.05a1.367 1.367 0 0 0-1.678-.013c-6.493 4.97-14.01 8.178-21.166 9.036a1.367 1.367 0 0 0-1.204 1.357v5.795a1.367 1.367 0 1 0 2.734 0v-4.601c5.202-.792 12.588-2.995 20.455-8.783 6.38 4.835 13.287 7.798 20.56 8.824v11.558a31.296 31.296 0 0 1-6.234 18.821c-3.907 5.255-8.833 9.095-14.273 11.134-5.44-2.038-10.365-5.878-14.272-11.132a31.467 31.467 0 0 1-6.014-15.05 1.366 1.366 0 1 0-2.716.322 34.205 34.205 0 0 0 6.536 16.36c4.34 5.837 9.876 10.07 16.01 12.244a1.366 1.366 0 0 0 .913 0c6.133-2.174 11.67-6.408 16.01-12.246 4.432-5.955 6.775-13.028 6.775-20.453V28.297c0-.697-.524-1.282-1.217-1.359z" fill="#00AEF3"/><path d="M68.283 39.97a1.367 1.367 0 0 0-1.104-.93l-7.806-1.135-3.49-7.073a1.367 1.367 0 0 0-2.451 0l-3.491 7.073-7.806 1.134a1.367 1.367 0 0 0-.758 2.332l5.649 5.506-1.334 7.775a1.367 1.367 0 0 0 1.984 1.441l6.982-3.671 6.98 3.671a1.367 1.367 0 0 0 1.984-1.441l-1.333-7.775 5.648-5.506c.373-.363.507-.906.346-1.401zm-8.418 5.45c-.322.315-.47.768-.393 1.211l.986 5.753-5.164-2.716a1.367 1.367 0 0 0-1.273 0l-5.166 2.716.987-5.753a1.367 1.367 0 0 0-.393-1.21l-4.18-4.074 5.776-.839c.445-.064.83-.344 1.03-.748l2.582-5.233 2.582 5.233c.2.404.584.684 1.03.748l5.776.84-4.18 4.073z" fill="#00AEF3"/></symbol><symbol viewBox="0 0 87 80" fill="none" id="icon-adv2"><circle cx="40" cy="40" r="40" fill="#D1F1F8"/><path d="M74.333 77.667h-49V12.333h37.334V24h11.666v3.5h2.334v-5.15L64.317 10H23v70h53.667V60.167h-2.334v17.5zM65 13.983l7.684 7.684H65v-7.684z" fill="#00AEF3"/><path d="M32.333 17H30v2.333h2.333V17zM58 17H34.666v2.333H58V17zm0 4.667H30V24h28v-2.333zm11.667 4.666H30v2.334h39.667v-2.334zm0 4.667H30v2.333h39.667V31zm0 4.667H30V38h39.667v-2.333zm0 4.666H30v2.334h39.667v-2.334zM65 45H30v2.333h35V45zm0 4.667H30V52h35v-2.333zm-2.333 4.666H30v2.334h32.667v-2.334zM60.333 59H30v2.333h30.333V59zm-8.867 11.06a3.122 3.122 0 0 0 2.128-.817c.292-.233.38-.303.67-.303.29 0 .378.07.67.303a3.187 3.187 0 0 0 4.26 0c.291-.233.38-.304.671-.304.292 0 .38.07.673.304.583.53 1.343.822 2.13.817v-2.333c-.29 0-.38-.07-.672-.305a3.191 3.191 0 0 0-4.261 0c-.292.233-.38.305-.672.305-.292 0-.378-.07-.67-.304a3.183 3.183 0 0 0-4.258 0c-.292.234-.38.304-.669.304-.289 0-.378-.07-.67-.304a3.122 3.122 0 0 0-2.13-.816v2.333c.29 0 .377.07.669.303a3.128 3.128 0 0 0 2.131.817zm33.278-43.903l-2.128-.959a3.5 3.5 0 0 0-4.628 1.756L62.501 61.35l1.7 7.589 6.81-3.757L86.5 30.785a3.506 3.506 0 0 0-1.755-4.628zM65.802 65.382l-.424-1.892 2.127.958-1.703.934zm3.726-2.583l-4.261-1.91 12.45-27.658 4.255 1.916L69.528 62.8zm14.838-32.966l-1.436 3.191-4.256-1.917 1.437-3.19a1.167 1.167 0 0 1 1.543-.583l2.128.957c.587.265.849.955.584 1.542z" fill="#00AEF3"/></symbol><symbol viewBox="0 0 90 83" fill="none" id="icon-adv3"><circle cx="40" cy="40" r="40" fill="#D1F1F8"/><path fill-rule="evenodd" clip-rule="evenodd" d="M21.836 39.81c-2.25-5.986-2.449-11.113-.505-13.061.316-.318.639-.656.968-1l.224-.235c2.026-2.14 4.318-4.559 6.854-4.559.053 0 .108 0 .163.002 1.79.075 3.713 1.382 5.72 3.884 6.005 7.497 3.881 9.594.363 13.07l-.675.67c-2.811 2.826.062 8.336 9.04 17.345 3.634 3.648 6.761 6.337 9.29 7.987 3.648 2.379 6.338 2.75 7.99 1.086l.68-.687.002-.002c3.461-3.523 5.548-5.646 13.015.376 2.497 2.012 3.8 3.941 3.872 5.739.108 2.61-2.357 4.96-4.534 7.037l-.006.006-.147.141c-.375.36-.74.71-1.084 1.054-1.944 1.948-7.049 1.756-13.017-.505-7.369-2.787-15.417-8.33-22.665-15.601-7.248-7.276-12.769-15.354-15.548-22.747zm37.152 41.154c3.195 1.21 6.29 1.92 8.964 2.023 2.514.097 5.36-.322 7.238-2.206h.001c.317-.319.655-.643 1.034-1.006l.148-.141.079-.076c1.037-.988 2.352-2.243 3.38-3.621 1.05-1.408 2.098-3.33 2.003-5.635-.127-3.14-2.312-5.796-4.988-7.952-3.782-3.05-7.032-4.782-10.236-4.412-1.64.19-2.952.897-4.02 1.699-.98.737-1.897 1.67-2.7 2.487l-.081.083-.003.003-.666.674-.007.008-.002.002c-.057.06-.17.178-.705.105-.706-.096-1.856-.52-3.51-1.598-2.273-1.484-5.23-4.004-8.805-7.592-4.445-4.46-7.136-7.826-8.405-10.26-.63-1.21-.79-1.968-.795-2.373-.004-.284.055-.37.159-.474l.66-.658h.002l.002-.003.08-.078c.816-.806 1.746-1.725 2.483-2.71.8-1.071 1.505-2.385 1.695-4.023.372-3.206-1.347-6.464-4.391-10.264l-.002-.002c-2.147-2.676-4.796-4.873-7.935-5.004h-.01c-.114-.005-.22-.005-.27-.005h-.008c-2.228 0-4.078 1.054-5.438 2.092-1.338 1.021-2.559 2.31-3.525 3.33l-.064.069-.23.24c-.327.343-.622.652-.913.944l39.78 56.334zm-.002 0c-7.87-2.978-16.266-8.804-23.727-16.29-7.462-7.49-13.264-15.917-16.231-23.808-1.204-3.203-1.911-6.305-2.015-8.984-.097-2.516.315-5.368 2.193-7.25l39.78 56.332zm2.071-66.733a23.842 23.842 0 0 0-11.272 3.417 1.518 1.518 0 1 1-1.575-2.596 26.878 26.878 0 0 1 12.712-3.855c14.83-.66 27.422 10.906 28.084 25.777.265 5.947-1.378 11.677-4.75 16.561a1.518 1.518 0 0 1-2.5-1.725c2.995-4.337 4.452-9.414 4.216-14.701-.588-13.205-11.77-23.463-24.915-22.878z" fill="#00AEF3"/><path d="M52.584 28.757c1.265-.383 2.478-.622 3.787-.622 3.387 0 5.458 1.697 5.458 4.59 0 1.602-.883 2.822-2.765 4.066l-3.787 2.557c-1.17.79-1.694 2.033-1.694 3.373h7.743c.167 0 .263.095.263.262v1.841c0 .166-.096.262-.263.262H51.152c-.166 0-.261-.096-.261-.262v-1.147c0-2.917.953-5.021 3.096-6.433l3.766-2.51c.953-.648 1.379-1.27 1.379-2.008 0-1.34-1.048-2.2-2.765-2.2a9.342 9.342 0 0 0-3 .5l-1.383.456c-.14.047-.261-.025-.31-.168l-.594-1.793c-.072-.142 0-.264.165-.31l1.34-.454z" fill="#00AEF3"/><path fill-rule="evenodd" clip-rule="evenodd" d="M52.694 29.1l-1.235.419.525 1.584 1.268-.418a9.704 9.704 0 0 1 3.115-.52c.915 0 1.694.23 2.252.678.567.454.874 1.11.874 1.883 0 .914-.543 1.63-1.538 2.306l-.002.002-3.768 2.511c-2.02 1.33-2.933 3.306-2.933 6.132v1.049h9.976V43.08h-8.005v-.36c0-1.437.566-2.803 1.852-3.672l3.79-2.56c1.837-1.213 2.603-2.337 2.603-3.763 0-1.354-.48-2.395-1.33-3.104-.856-.716-2.13-1.126-3.767-1.126-1.26 0-2.436.229-3.677.604zm-.214-.688c1.286-.39 2.537-.637 3.892-.637 1.749 0 3.204.438 4.23 1.294 1.033.863 1.587 2.117 1.587 3.657 0 1.776-.998 3.091-2.925 4.365l-3.785 2.556c-.95.641-1.435 1.616-1.52 2.713h7.367c.152 0 .32.045.449.174.13.13.175.297.175.449v1.841a.622.622 0 0 1-.175.449.625.625 0 0 1-.45.174H51.153a.621.621 0 0 1-.448-.175.623.623 0 0 1-.174-.448v-1.147c0-3.009.992-5.24 3.257-6.733l.001-.001 3.764-2.509c.91-.618 1.22-1.145 1.22-1.708 0-.567-.218-1.01-.604-1.321-.395-.317-.999-.518-1.8-.518a8.98 8.98 0 0 0-2.884.48l-.004.002-1.382.455a.592.592 0 0 1-.48-.04.634.634 0 0 1-.285-.353l-.001-.003-.588-1.773a.553.553 0 0 1 .014-.499.626.626 0 0 1 .379-.29l1.337-.453.006-.001z" fill="#00AEF3"/><path d="M76.537 40.544c0 .169-.095.265-.26.265h-1.478v4.017c0 .166-.095.262-.263.262h-2.143c-.167 0-.263-.096-.263-.262v-4.018h-7.984c-.166 0-.261-.095-.261-.264v-2.008c0-.142.025-.238.12-.334a32.302 32.302 0 0 0 1.692-2.127l4.409-5.692c.452-.598.808-1.173 1.214-1.841a.386.386 0 0 1 .333-.166h2.881c.168 0 .263.095.263.261v9.804h1.477c.166 0 .26.095.26.264v1.84h.003zm-4.407-6.24c0-.765.047-1.531.142-2.345.047-.287-.165-.36-.356-.096l-3.862 4.925c-.31.43-.762.98-1.095 1.29-.167.192-.072.358.12.358h5.051v-4.133z" fill="#00AEF3"/><path fill-rule="evenodd" clip-rule="evenodd" d="M71.614 28.752c-.4.66-.762 1.242-1.22 1.849l-.003.003-4.406 5.688a32.628 32.628 0 0 1-1.706 2.145l-.008.01-.01.01a.091.091 0 0 0-.01.012.27.27 0 0 0-.006.067v1.912h8.246v4.28h1.948v-4.28h1.735V38.8h-1.737V28.736h-2.784a.114.114 0 0 0-.025.002.153.153 0 0 0-.014.014zm5.281 11.432h.003v.36a.626.626 0 0 1-.173.45.62.62 0 0 1-.449.175H75.16v3.657a.622.622 0 0 1-.175.449.624.624 0 0 1-.449.174h-2.143a.624.624 0 0 1-.449-.174.622.622 0 0 1-.175-.449V41.17h-7.623a.62.62 0 0 1-.449-.176.626.626 0 0 1-.173-.449v-2.007a.93.93 0 0 1 .044-.301.738.738 0 0 1 .172-.277 31.896 31.896 0 0 0 1.665-2.096l.003-.004 4.411-5.695c.44-.581.788-1.142 1.192-1.81l.012-.02.015-.018a.807.807 0 0 1 .27-.225.762.762 0 0 1 .345-.076h2.881c.152 0 .32.045.45.174.129.13.174.297.174.448v9.443h1.116a.62.62 0 0 1 .449.176c.128.13.172.297.172.449v1.479zm-4.265-8.176a19.562 19.562 0 0 0-.14 2.296v4.493h-5.412c-.192 0-.428-.09-.527-.331-.099-.24.004-.473.137-.625l.012-.013.013-.013c.31-.288.745-.816 1.049-1.237l.004-.006 3.862-4.926a.82.82 0 0 1 .254-.234.485.485 0 0 1 .718.246c.045.117.046.24.03.35zm-.78.523l-3.507 4.474a11.98 11.98 0 0 1-.874 1.07h4.3v-3.772c0-.583.027-1.168.081-1.772z" fill="#00AEF3"/></symbol><symbol viewBox="0 0 87 80" fill="none" id="icon-adv4"><circle cx="40" cy="40" r="40" fill="#D1F1F8"/><path d="M35.839 74.839a1.635 1.635 0 1 0 0-3.27 1.635 1.635 0 0 0 0 3.27z" fill="#00AEF3"/><path d="M83.182 62.167a3.42 3.42 0 0 0 .523-1.82v-.577a3.445 3.445 0 0 0-3.441-3.44h-10.7c-.232 0-.46.023-.679.067l1.922-9.683c.282-1.42.313-2.815.095-4.148-.364-2.216-1.534-4.858-5.046-4.858-.501 0-.929.361-1.013.855l-.674 3.966a30.572 30.572 0 0 1-1.086 4.436c-1.257 3.813-2.844 5.767-5.658 6.971a145.408 145.408 0 0 0-2.89 1.273h-4.237v-.821c0-.568-.46-1.027-1.027-1.027H42.32v-1.108c0-.568-.46-1.027-1.027-1.027H24.027c-.567 0-1.027.46-1.027 1.027v6.094a1.027 1.027 0 1 0 2.054 0V53.28h15.21v24.176h-15.21V61.77a1.027 1.027 0 1 0-2.054 0v16.712c0 .567.46 1.027 1.027 1.027h17.265c.567 0 1.027-.46 1.027-1.027v-1.108h6.953c.567 0 1.027-.46 1.027-1.027v-.482h4.096l2.207 1.787a10.474 10.474 0 0 0 6.57 2.326h6.278c.133.013.266.02.402.02h7.337a3.733 3.733 0 0 0 3.729-3.728c0-.617-.152-1.2-.418-1.713a3.734 3.734 0 0 0 3.205-3.691c0-.76-.23-1.467-.62-2.057a3.444 3.444 0 0 0 1.868-3.06v-.576a3.442 3.442 0 0 0-1.771-3.007zm-13.618-3.783h10.7c.764 0 1.387.622 1.387 1.387v.575a1.39 1.39 0 0 1-1.387 1.388h-10.7a1.389 1.389 0 0 1-1.387-1.388v-.552c.067-.249.126-.483.176-.697a1.387 1.387 0 0 1 1.211-.713zM66.123 76.27c0 .594.14 1.155.388 1.654h-3.34a8.416 8.416 0 0 1-5.277-1.868l-2.49-2.016a1.027 1.027 0 0 0-.646-.229h-4.46v-2.945a1.027 1.027 0 1 0-2.054 0v4.454H42.32V55.415h5.925v12.028a1.027 1.027 0 1 0 2.054 0v-10.18h4.46c.148 0 .295-.032.43-.094.012-.006 1.316-.605 3.044-1.344 3.384-1.447 5.355-3.827 6.802-8.216a32.664 32.664 0 0 0 1.16-4.735l.514-3.022c1.205.281 1.87 1.237 2.166 3.047.18 1.089.151 2.238-.082 3.416l-2.19 11.034a14.149 14.149 0 0 1-.204 1.075 3.437 3.437 0 0 0-.26 1.029c-.813 2.904-2.907 7.882-7.701 7.882a1.027 1.027 0 1 0 0 2.054c3.179 0 5.829-1.64 7.73-4.76a3.38 3.38 0 0 0-.044.546v.576c0 .983.415 1.87 1.078 2.497a3.718 3.718 0 0 0 .086 5.32 3.717 3.717 0 0 0-1.164 2.703zm11.066 1.675h-7.337a1.677 1.677 0 0 1-1.675-1.675c0-.924.752-1.675 1.675-1.675h7.337c.924 0 1.675.751 1.675 1.675 0 .923-.752 1.675-1.675 1.675zm2.787-5.404H69.852a1.677 1.677 0 0 1-1.675-1.675c0-.924.752-1.675 1.675-1.675h10.124c.923 0 1.675.751 1.675 1.675 0 .923-.752 1.675-1.675 1.675zm2.923-6.792a1.39 1.39 0 0 1-1.387 1.388H69.564a1.389 1.389 0 0 1-1.387-1.388v-.576c0-.764.622-1.387 1.387-1.387h11.948c.765 0 1.387.623 1.387 1.387v.576zM43.605 24.82a1.91 1.91 0 0 0-1.55-1.307l-4.67-.679-2.09-4.232a1.91 1.91 0 0 0-1.722-1.07 1.91 1.91 0 0 0-1.723 1.07l-2.088 4.232-4.67.679a1.91 1.91 0 0 0-1.551 1.307 1.91 1.91 0 0 0 .486 1.97l3.38 3.294-.798 4.651a1.91 1.91 0 0 0 .764 1.88 1.914 1.914 0 0 0 2.023.145l4.177-2.196 4.177 2.196a1.91 1.91 0 0 0 2.023-.146 1.909 1.909 0 0 0 .764-1.879l-.797-4.651 3.379-3.294a1.91 1.91 0 0 0 .486-1.97zm-5.35 3.842a1.92 1.92 0 0 0-.552 1.7l.764 4.454-4-2.103a1.92 1.92 0 0 0-1.788 0l-4 2.103.763-4.454a1.921 1.921 0 0 0-.552-1.7l-3.237-3.155 4.473-.65a1.92 1.92 0 0 0 1.447-1.05l2-4.054 2 4.053c.28.567.82.96 1.446 1.051l4.472.65-3.236 3.155zM65.21 17.288a1.91 1.91 0 0 0-1.55-1.307l-4.67-.678-2.09-4.232A1.91 1.91 0 0 0 55.179 10a1.91 1.91 0 0 0-1.723 1.07l-2.088 4.233-4.67.678a1.909 1.909 0 0 0-1.551 1.307 1.91 1.91 0 0 0 .486 1.97l3.38 3.294-.798 4.651a1.91 1.91 0 0 0 .764 1.88 1.91 1.91 0 0 0 2.023.146l4.177-2.196 4.177 2.196a1.916 1.916 0 0 0 2.023-.146 1.909 1.909 0 0 0 .764-1.88l-.798-4.65 3.38-3.295a1.91 1.91 0 0 0 .486-1.97zm-5.35 3.842a1.921 1.921 0 0 0-.552 1.7l.764 4.455-4-2.103a1.92 1.92 0 0 0-1.788 0l-4 2.103.764-4.455a1.92 1.92 0 0 0-.553-1.7l-3.236-3.155 4.472-.65a1.92 1.92 0 0 0 1.447-1.05l2-4.053 2 4.053c.28.567.82.96 1.447 1.05l4.472.65-3.236 3.155zm26.916 3.69a1.91 1.91 0 0 0-1.551-1.307l-4.67-.679-2.089-4.231a1.91 1.91 0 0 0-1.722-1.071 1.91 1.91 0 0 0-1.723 1.07l-2.089 4.232-4.67.68a1.91 1.91 0 0 0-1.55 1.306 1.91 1.91 0 0 0 .486 1.97l3.38 3.294-.799 4.651a1.91 1.91 0 0 0 .764 1.88 1.91 1.91 0 0 0 2.023.145l4.177-2.196 4.177 2.196a1.915 1.915 0 0 0 2.023-.146 1.909 1.909 0 0 0 .765-1.879l-.798-4.65 3.38-3.295a1.91 1.91 0 0 0 .486-1.97zm-5.35 3.842a1.921 1.921 0 0 0-.552 1.7l.764 4.454-4-2.103a1.92 1.92 0 0 0-1.789 0l-4 2.103.764-4.454a1.92 1.92 0 0 0-.552-1.7l-3.237-3.155 4.473-.65a1.92 1.92 0 0 0 1.446-1.05l2-4.054 2 4.053c.28.568.822.96 1.447 1.051l4.473.65-3.237 3.155z" fill="#00AEF3"/></symbol><symbol viewBox="0 0 87 80" fill="none" id="icon-adv5"><circle cx="40" cy="40" r="40" fill="#D1F1F8"/><path d="M77.39 25.216H40.557l12.25-12.25 11.196 11.196a1.229 1.229 0 0 0 1.738-1.738L53.677 10.36a1.229 1.229 0 0 0-1.738 0L37.082 25.217h-6.309c-4.837 0-8.773 3.936-8.773 8.774v37.234C22 76.064 25.936 80 30.773 80h9.672a1.228 1.228 0 1 0 0-2.457h-9.672a6.324 6.324 0 0 1-6.316-6.318V33.991a6.324 6.324 0 0 1 6.316-6.317H77.39a3.774 3.774 0 0 1 3.77 3.77v7.677a1.228 1.228 0 1 0 2.457 0v-7.677a6.234 6.234 0 0 0-6.227-6.227z" fill="#00AEF3"/><path d="M82.89 41.617H65.416a3.82 3.82 0 0 0-3.815 3.815v14.352a3.82 3.82 0 0 0 3.815 3.815H81.16v10.174a3.774 3.774 0 0 1-3.77 3.77H45.358a1.229 1.229 0 1 0 0 2.457H77.39a6.234 6.234 0 0 0 6.227-6.227V63.529a3.82 3.82 0 0 0 3.089-3.745V45.432a3.82 3.82 0 0 0-3.815-3.815zm1.359 18.167a1.36 1.36 0 0 1-1.358 1.358H65.415a1.36 1.36 0 0 1-1.358-1.358V45.432c0-.749.61-1.358 1.358-1.358h17.476c.749 0 1.358.61 1.358 1.358v14.352z" fill="#00AEF3"/><path d="M74.882 51.38c-.679 0-1.229.55-1.229 1.228a2.128 2.128 0 0 1-2.125 2.126 2.128 2.128 0 0 1-2.125-2.126c0-1.172.953-2.125 2.125-2.125a1.228 1.228 0 1 0 0-2.457 4.588 4.588 0 0 0-4.583 4.583 4.588 4.588 0 0 0 4.583 4.582 4.588 4.588 0 0 0 4.583-4.582c0-.68-.55-1.23-1.229-1.23z" fill="#00AEF3"/></symbol><symbol viewBox="0 0 84 80" fill="none" id="icon-adv6"><circle cx="40" cy="40" r="40" fill="#D1F1F8"/><path d="M78.525 16.7v2.05h3.35v11.938a3.355 3.355 0 0 1-2.324-3.188H77.5a3.353 3.353 0 0 1-3.35 3.35v2.05a3.353 3.353 0 0 1 3.35 3.35h2.05c0-1.49.978-2.754 2.325-3.188v44.887H27.051V18.75h42.724V16.7H25V80h58.926V16.7h-5.4zm0 16.39a5.438 5.438 0 0 0-1.214-1.215 5.44 5.44 0 0 0 1.214-1.215 5.44 5.44 0 0 0 1.215 1.215 5.438 5.438 0 0 0-1.215 1.215z" fill="#00AEF3"/><path d="M29.375 21.074V45h2.05V23.125H51.25v50.45H31.426V53.75h-2.051v21.875h23.926v-54.55H29.375zm26.25 0v49.15h2.05V23.126h20.85v-2.05h-22.9zM77.5 40.625v32.95H56.65v2.05h22.9v-35H77.5z" fill="#00AEF3"/><path d="M38.425 25.75l-4.375 4.375 1.45 1.45 4.375-4.376-1.45-1.45zm4.375 0l-8.75 8.75 1.45 1.45 8.75-8.75-1.45-1.45zm21.875 0l-4.376 4.375 1.45 1.45 4.376-4.376-1.45-1.45zm4.375 0L60.3 34.5l1.45 1.45 8.75-8.75-1.45-1.45zM35.8 45h-2.05a3.353 3.353 0 0 1-3.35 3.35v2.05a3.353 3.353 0 0 1 3.35 3.35h2.05a3.353 3.353 0 0 1 3.35-3.35v-2.05A3.353 3.353 0 0 1 35.8 45zm-1.025 5.59a5.44 5.44 0 0 0-1.214-1.215 5.44 5.44 0 0 0 1.214-1.215 5.44 5.44 0 0 0 1.215 1.215 5.44 5.44 0 0 0-1.215 1.215zM75.176 10h-2.051a3.353 3.353 0 0 1-3.35 3.35v2.05a3.353 3.353 0 0 1 3.35 3.35h2.05a3.353 3.353 0 0 1 3.35-3.35v-2.05a3.353 3.353 0 0 1-3.35-3.35zm-1.026 5.59a5.44 5.44 0 0 0-1.214-1.215 5.44 5.44 0 0 0 1.214-1.215 5.44 5.44 0 0 0 1.215 1.215 5.44 5.44 0 0 0-1.215 1.215zm0 31.734h-2.187v2.051h2.187v-2.05zm-5.468 0h-2.188v2.051h2.188v-2.05zm-5.469 0h-2.188v2.051h2.188v-2.05z" fill="#00AEF3"/></symbol><symbol viewBox="0 0 97 68" id="icon-play"><path d="M95.201 10.862c-1.186-5.152-5.4-8.953-10.473-9.52C72.715 0 60.556-.006 48.453 0 36.348-.006 24.187 0 12.174 1.34c-5.07.568-9.281 4.369-10.467 9.52C.019 18.2 0 26.209 0 33.762c0 7.555 0 15.563 1.688 22.899 1.184 5.15 5.396 8.952 10.469 9.52 12.012 1.342 24.172 1.349 36.277 1.342 12.107.007 24.264 0 36.275-1.342 5.07-.567 9.285-4.368 10.471-9.52 1.689-7.337 1.695-15.345 1.695-22.898 0-7.554.014-15.563-1.674-22.9zM35.936 48.798V16.76a497491.15 497491.15 0 0 0 30.798 16.068c-10.3 5.342-20.504 10.63-30.798 15.969z"/><path d="M35.936 16.76v32.038l30.798-15.97a497491.15 497491.15 0 0 1-30.798-16.067z"/><path d="M35.936 16.76v32.038l30.798-15.97a497491.15 497491.15 0 0 1-30.798-16.067z"/><path d="M38 19v28c9.025-4.665 17.97-9.288 27-13.957-9.058-4.71-18-9.361-27-14.043z" fill="#F2F2F2"/></symbol><symbol viewBox="0 0 27 44" id="icon-scroll"><path fill-rule="evenodd" clip-rule="evenodd" d="M13.5 0C8.814 0 5.17 1.423 2.76 4.306.353 7.187 0 10.55 0 12.283v19.435c0 1.732.352 5.095 2.76 7.976C5.17 42.577 8.815 44 13.5 44s8.33-1.423 10.74-4.306C26.648 36.813 27 33.45 27 31.718V12.282c0-1.731-.352-5.095-2.76-7.976C21.83 1.423 18.185 0 13.5 0zM2.36 12.283c0-.813.131-3.212 1.498-5.437 1.298-2.113 3.75-4.133 8.462-4.422v4.094a3.645 3.645 0 0 0-2.402 3.44v3.766a3.645 3.645 0 0 0 2.402 3.44v5.325c0 .65.519 1.193 1.18 1.193.661 0 1.18-.543 1.18-1.193v-5.325a3.645 3.645 0 0 0 2.402-3.44V9.959a3.645 3.645 0 0 0-2.402-3.44V2.423c4.713.29 7.163 2.309 8.462 4.422 1.367 2.225 1.498 4.624 1.498 5.437v19.435c0 .83-.137 3.315-1.586 5.579-1.425 2.225-4.17 4.316-9.554 4.316-5.385 0-8.129-2.091-9.554-4.316-1.45-2.264-1.586-4.749-1.586-5.58V12.284zm9.918-2.324c0-.703.558-1.257 1.222-1.257.664 0 1.222.554 1.222 1.257v3.765c0 .702-.558 1.257-1.222 1.257-.664 0-1.222-.555-1.222-1.257V9.959z"/></symbol><symbol viewBox="0 0 16 17" id="icon-search"><path d="M15.757 15.484l-3.944-4.208a6.949 6.949 0 0 0 1.57-4.412C13.382 3.079 10.38 0 6.69 0 3.001 0 0 3.08 0 6.864s3.002 6.863 6.691 6.863a6.505 6.505 0 0 0 3.834-1.242l3.974 4.24a.856.856 0 0 0 1.234.025.913.913 0 0 0 .024-1.266zM6.69 1.791c2.727 0 4.946 2.275 4.946 5.073 0 2.797-2.219 5.073-4.946 5.073S1.746 9.66 1.746 6.864c0-2.798 2.218-5.073 4.945-5.073z"/></symbol><symbol viewBox="0 0 97.395 97.395" id="inst"><path d="M12.501 0h72.393c6.875 0 12.5 5.09 12.5 12.5v72.395c0 7.41-5.625 12.5-12.5 12.5H12.501C5.624 97.395 0 92.305 0 84.895V12.5C0 5.09 5.624 0 12.501 0zm58.447 10.821a4.395 4.395 0 0 0-4.383 4.385v10.495a4.396 4.396 0 0 0 4.383 4.385h11.008a4.398 4.398 0 0 0 4.385-4.385V15.206a4.397 4.397 0 0 0-4.385-4.385H70.948zm15.439 30.367h-8.572a28.486 28.486 0 0 1 1.25 8.355c0 16.2-13.556 29.332-30.275 29.332-16.718 0-30.272-13.132-30.272-29.332 0-2.904.438-5.708 1.25-8.355h-8.945v41.141a3.884 3.884 0 0 0 3.872 3.872h67.822a3.883 3.883 0 0 0 3.872-3.872V41.188h-.002zM48.789 29.533c-10.802 0-19.56 8.485-19.56 18.953s8.758 18.953 19.56 18.953c10.803 0 19.562-8.485 19.562-18.953s-8.758-18.953-19.562-18.953z"/></symbol><symbol viewBox="0 0 209 52" id="logotip"><path d="M27.128 36.474c-1.792 9.07-8.38 14.13-11.449 15.526 9.209-12.322 7.218-13.801 6.969-24.152-7.218-4.929-7.715-9.857-6.222-14.54-.249 6.654 6.72 12.076 11.2 12.076 4.48 0 7.963-3.45 9.954-6.654.25 4.19-3.235 7.886-6.47 8.625-1.742 11.583 3.235 15.28 5.724 20.702-2.24-.74-8.462-6.654-9.706-11.583z"/><path d="M32.603 18.976c0 2.45-2.006 4.436-4.48 4.436-2.474 0-4.48-1.986-4.48-4.436s2.006-4.436 4.48-4.436c2.474 0 4.48 1.986 4.48 4.436z"/><path fill-rule="evenodd" clip-rule="evenodd" d="M21.652 37.953v-3.944l-7.715 1.48V6.9l24.639-2.464v26.37l-5.724 1.232v3.697l8.462-1.725v-3.178l8.71.467V0l-8.71 3.45V0L10.453 3.204v2.879L0 4.436v36.227l10.453-4.234v3.742l11.2-2.218zM8.711 8.157l1.742.222v12.589l-1.742.152V8.157zm-.996-.128l-4.977-.636v14.249l4.977-.435V8.029zM2.738 22.631v14.582l4.977-1.908V22.197l-4.977.434zM8.71 34.924l1.742-.668V21.957l-1.742.152v12.815zM43.553 4.59l-2.24.832v11.206l2.24-.37V4.59zm.996-.37v11.874l2.738-.452V3.204L44.549 4.22zm2.738 12.422l-2.738.452v12.12l2.738.113V16.642zm-3.734 12.531V17.258l-2.24.37V29.08l2.24.092z"/><path d="M65.101 37.406h-3.638v6.708h-1.356v-7.812H65.1v1.104zm6.045 6.708c-.078-.154-.141-.429-.19-.823-.627.645-1.376.967-2.246.967-.777 0-1.416-.216-1.917-.65a2.12 2.12 0 0 1-.744-1.66c0-.814.311-1.444.933-1.892.627-.452 1.507-.679 2.64-.679h1.312v-.613c0-.467-.14-.838-.423-1.112-.281-.28-.697-.419-1.246-.419-.482 0-.885.12-1.21.361-.327.24-.49.532-.49.874H66.21c0-.39.138-.766.415-1.127a2.878 2.878 0 0 1 1.138-.866 3.884 3.884 0 0 1 1.582-.318c.909 0 1.62.227 2.136.679.515.448.783 1.066.802 1.855v3.596c0 .717.093 1.288.277 1.711v.116h-1.414zm-2.239-1.018c.423 0 .824-.109 1.203-.325.38-.217.654-.498.824-.845v-1.603h-1.057c-1.653 0-2.479.48-2.479 1.437 0 .419.141.746.423.982.282.236.644.354 1.086.354zm12.155-2.802c0 1.19-.275 2.147-.824 2.874-.55.727-1.293 1.09-2.231 1.09-.958 0-1.711-.3-2.26-.902v3.761h-1.35V36.302h1.233l.066.866c.549-.674 1.312-1.01 2.289-1.01.948 0 1.696.353 2.246 1.06.554.708.83 1.692.83 2.954v.122zm-1.349-.151c0-.881-.19-1.577-.569-2.087-.379-.51-.899-.765-1.56-.765-.817 0-1.43.358-1.837 1.076v3.732c.403.713 1.02 1.069 1.852 1.069.646 0 1.159-.253 1.538-.758.384-.51.576-1.266.576-2.267zm7.94 3.971c-.078-.154-.14-.429-.19-.823-.626.645-1.375.967-2.245.967-.778 0-1.417-.216-1.918-.65a2.12 2.12 0 0 1-.743-1.66c0-.814.31-1.444.933-1.892.627-.452 1.507-.679 2.64-.679h1.312v-.613c0-.467-.141-.838-.423-1.112-.282-.28-.698-.419-1.247-.419-.481 0-.885.12-1.21.361-.326.24-.489.532-.489.874h-1.356c0-.39.139-.766.416-1.127a2.877 2.877 0 0 1 1.137-.866 3.884 3.884 0 0 1 1.582-.318c.91 0 1.621.227 2.137.679.515.448.782 1.066.802 1.855v3.596c0 .717.092 1.288.277 1.711v.116h-1.415zm-2.238-1.018c.423 0 .824-.109 1.203-.325.38-.217.654-.498.824-.845v-1.603h-1.057c-1.653 0-2.48.48-2.48 1.437 0 .419.141.746.423.982.282.236.644.354 1.087.354zm11.935 1.018h-1.348v-3.336h-3.624v3.336h-1.356v-7.812h1.356v3.386h3.624v-3.386h1.349v7.812zm8.036-6.729h-2.647v6.729h-1.349v-6.73h-2.596v-1.082h6.592v1.083zm5.14 6.729v-7.812h3.077c1.05 0 1.854.182 2.413.548.564.361.846.893.846 1.596 0 .361-.109.688-.328.982-.219.289-.542.51-.97.664.477.11.858.328 1.145.65.292.323.438.708.438 1.155 0 .717-.268 1.266-.802 1.646-.53.38-1.281.57-2.253.57h-3.566zm1.349-3.43v2.354h2.231c.564 0 .984-.103 1.262-.31.281-.208.422-.499.422-.874 0-.78-.578-1.17-1.735-1.17h-2.18zm0-1.068h1.743c1.263 0 1.895-.366 1.895-1.098 0-.731-.598-1.11-1.793-1.133h-1.845v2.23zm11.929 4.498c-.078-.154-.141-.429-.19-.823-.627.645-1.376.967-2.246.967-.777 0-1.417-.216-1.917-.65a2.12 2.12 0 0 1-.744-1.66c0-.814.311-1.444.933-1.892.627-.452 1.507-.679 2.64-.679h1.312v-.613c0-.467-.141-.838-.423-1.112-.282-.28-.697-.419-1.247-.419-.481 0-.884.12-1.21.361-.326.24-.488.532-.488.874h-1.357c0-.39.139-.766.416-1.127a2.88 2.88 0 0 1 1.137-.866 3.89 3.89 0 0 1 1.583-.318c.909 0 1.621.227 2.136.679.515.448.783 1.066.802 1.855v3.596c0 .717.092 1.288.277 1.711v.116h-1.414zm-2.239-1.018c.423 0 .824-.109 1.203-.325.379-.217.654-.498.824-.845v-1.603h-1.057c-1.653 0-2.479.48-2.479 1.437 0 .419.141.746.423.982.282.236.644.354 1.086.354zm6.963-6.794v6.721h2.888v-6.721h1.349v6.721h2.88v-6.721h1.356v7.812h-9.829v-7.812h1.356zm13.876 7.956c-1.07 0-1.94-.346-2.611-1.04-.67-.698-1.006-1.629-1.006-2.794v-.245c0-.775.149-1.466.445-2.072a3.473 3.473 0 0 1 1.254-1.43 3.178 3.178 0 0 1 1.75-.52c1.026 0 1.823.335 2.392 1.004.568.669.853 1.627.853 2.873v.556h-5.345c.02.77.246 1.394.678 1.87.438.472.992.708 1.663.708.476 0 .879-.096 1.21-.289.331-.192.62-.447.868-.765l.824.635c-.661 1.006-1.653 1.51-2.975 1.51zm-.168-7.003c-.544 0-1.001.197-1.371.592-.369.39-.598.938-.685 1.646h3.952v-.101c-.039-.679-.224-1.204-.554-1.574-.331-.376-.778-.563-1.342-.563zm9.909.151h-3.638v6.708h-1.357v-7.812h4.995v1.104zm.671 2.73c0-.766.15-1.454.452-2.066.306-.61.729-1.083 1.268-1.415.545-.332 1.165-.498 1.86-.498 1.074 0 1.942.368 2.603 1.105.666.736.999 1.716.999 2.938v.094c0 .76-.149 1.444-.445 2.05a3.304 3.304 0 0 1-1.261 1.409c-.545.337-1.172.505-1.882.505-1.069 0-1.937-.368-2.603-1.105-.661-.736-.991-1.71-.991-2.924v-.093zm1.356.158c0 .867.202 1.562.605 2.087.408.525.953.787 1.633.787.686 0 1.23-.265 1.634-.794.403-.535.605-1.28.605-2.239 0-.856-.207-1.55-.62-2.079-.408-.534-.953-.801-1.633-.801-.666 0-1.203.262-1.612.787-.408.524-.612 1.275-.612 2.252zm13.802 1.863l1.838-5.855h1.443l-3.171 9.017c-.491 1.3-1.271 1.95-2.341 1.95l-.255-.022-.503-.094V46.07l.365.03c.456 0 .811-.092 1.064-.275.258-.183.469-.518.634-1.004l.299-.794-2.814-7.725h1.473l1.968 5.855zm5.965-2.541h1.895c.102-1.04.474-1.875 1.116-2.506.646-.635 1.461-.953 2.443-.953 1.03 0 1.873.344 2.53 1.033.656.688 1.011 1.583 1.064 2.686l.007.418c0 .76-.15 1.447-.452 2.058a3.344 3.344 0 0 1-1.268 1.415c-.545.327-1.167.491-1.867.491-1.016 0-1.847-.327-2.493-.982-.647-.66-1.009-1.514-1.087-2.563h-1.888v3.4h-1.349v-7.811h1.349v3.314zm3.222.678c0 .867.202 1.562.606 2.087.408.525.955.787 1.64.787.686 0 1.228-.267 1.626-.801.404-.535.605-1.278.605-2.231 0-.853-.204-1.546-.612-2.08-.408-.534-.953-.801-1.633-.801-.671 0-1.211.262-1.619.787-.408.524-.613 1.275-.613 2.252zm13.358-2.909h-2.647v6.729h-1.349v-6.73h-2.595v-1.082h6.591v1.083zm6.066 6.729c-.077-.154-.14-.429-.189-.823-.627.645-1.376.967-2.246.967-.778 0-1.417-.216-1.917-.65a2.12 2.12 0 0 1-.744-1.66c0-.814.311-1.444.933-1.892.627-.452 1.507-.679 2.64-.679h1.312v-.613c0-.467-.141-.838-.423-1.112-.282-.28-.697-.419-1.247-.419-.481 0-.884.12-1.21.361-.326.24-.489.532-.489.874h-1.356c0-.39.139-.766.416-1.127a2.88 2.88 0 0 1 1.137-.866 3.89 3.89 0 0 1 1.583-.318c.909 0 1.621.227 2.136.679.515.448.783 1.066.802 1.855v3.596c0 .717.092 1.288.277 1.711v.116h-1.415zm-2.238-1.018c.423 0 .824-.109 1.203-.325.379-.217.654-.498.824-.845v-1.603h-1.057c-1.653 0-2.479.48-2.479 1.437 0 .419.141.746.423.982.282.236.644.354 1.086.354zM75.85 15.94c0 2.072-.365 3.889-1.095 5.45-.729 1.561-1.775 2.766-3.138 3.614-1.353.848-2.907 1.272-4.663 1.272-1.737 0-3.287-.42-4.65-1.258-1.363-.838-2.418-2.033-3.167-3.585-.748-1.561-1.127-3.354-1.137-5.377v-1.041c0-2.072.37-3.893 1.108-5.464.749-1.58 1.8-2.79 3.153-3.628 1.362-.848 2.917-1.273 4.664-1.273 1.746 0 3.296.425 4.65 1.273 1.362.838 2.413 2.047 3.152 3.628.748 1.57 1.122 3.387 1.122 5.45v.94zm-4.377-.954c0-2.207-.393-3.884-1.18-5.03-.787-1.147-1.91-1.72-3.368-1.72-1.45 0-2.567.568-3.354 1.705-.787 1.128-1.185 2.785-1.195 4.973v1.026c0 2.15.393 3.816 1.18 5.002.787 1.185 1.92 1.778 3.398 1.778 1.449 0 2.562-.569 3.339-1.706.777-1.147 1.17-2.814 1.18-5.002v-1.026zm13.344 5.233h-1.67v5.768h-4.16V10.346h4.16v5.883h1.483l3.397-5.883h5.254l-5.095 7.444 5.57 8.197h-5.542l-3.397-5.768zm24.011 5.768h-4.175v-6.014h-5.168v6.014h-4.16V10.346h4.16v6.273h5.168v-6.273h4.175v15.64zm12.249 0c-.192-.376-.331-.844-.417-1.403-1.008 1.128-2.318 1.692-3.93 1.692-1.526 0-2.792-.444-3.8-1.33-.998-.887-1.497-2.005-1.497-3.354 0-1.657.609-2.93 1.828-3.816 1.228-.887 2.999-1.335 5.312-1.344h1.914v-.897c0-.722-.187-1.3-.561-1.734-.365-.434-.945-.65-1.742-.65-.7 0-1.252.168-1.655.505-.394.337-.59.8-.59 1.388h-4.161c0-.906.279-1.744.835-2.515.557-.771 1.344-1.374 2.361-1.807 1.017-.444 2.159-.665 3.426-.665 1.919 0 3.44.486 4.563 1.46 1.132.963 1.699 2.322 1.699 4.076v6.78c.009 1.484.216 2.607.619 3.368v.246h-4.204zm-3.44-2.906c.614 0 1.18-.135 1.699-.405.518-.28.902-.65 1.151-1.113v-2.688h-1.554c-2.083 0-3.191.722-3.326 2.168l-.014.246c0 .52.182.949.547 1.286.365.337.864.506 1.497.506zm26.947-4.105c-.163 2.264-.998 4.047-2.505 5.348-1.497 1.301-3.474 1.952-5.93 1.952-2.687 0-4.803-.906-6.348-2.718-1.536-1.821-2.304-4.317-2.304-7.488v-1.286c0-2.024.355-3.807 1.066-5.349.71-1.542 1.722-2.722 3.037-3.541 1.324-.83 2.86-1.244 4.606-1.244 2.419 0 4.367.651 5.844 1.952 1.478 1.3 2.332 3.127 2.563 5.479h-4.319c-.105-1.36-.484-2.342-1.137-2.95-.643-.616-1.626-.925-2.951-.925-1.439 0-2.519.52-3.239 1.562-.71 1.03-1.074 2.635-1.094 4.813v1.59c0 2.275.341 3.937 1.022 4.988.691 1.05 1.776 1.575 3.254 1.575 1.334 0 2.327-.303 2.979-.91.662-.617 1.042-1.567 1.137-2.848h4.319zm15.489-5.276h-4.995v12.287h-4.175V13.7h-4.908v-3.354h14.078V13.7zm16.122 4.61c0 2.41-.547 4.342-1.641 5.797-1.085 1.446-2.553 2.169-4.405 2.169-1.574 0-2.846-.55-3.815-1.648V32h-4.16V10.346h3.858l.144 1.532c1.008-1.214 2.322-1.821 3.944-1.821 1.919 0 3.412.713 4.477 2.14 1.065 1.425 1.598 3.391 1.598 5.897v.217zm-4.16-.303c0-1.455-.26-2.578-.778-3.368-.508-.79-1.252-1.185-2.231-1.185-1.305 0-2.202.5-2.692 1.503v6.404c.509 1.031 1.416 1.547 2.721 1.547 1.986 0 2.98-1.634 2.98-4.9zm6.103.015c0-1.552.297-2.935.892-4.149s1.449-2.154 2.563-2.819c1.122-.665 2.423-.997 3.901-.997 2.101 0 3.814.646 5.138 1.937 1.334 1.291 2.078 3.045 2.232 5.262l.028 1.07c0 2.399-.667 4.326-2 5.781-1.334 1.446-3.124 2.169-5.37 2.169-2.245 0-4.04-.723-5.383-2.169-1.334-1.445-2.001-3.411-2.001-5.897v-.188zm4.16.303c0 1.484.278 2.622.835 3.412.556.78 1.353 1.17 2.389 1.17 1.008 0 1.795-.385 2.361-1.156.566-.78.849-2.024.849-3.73 0-1.454-.283-2.582-.849-3.382-.566-.8-1.363-1.2-2.389-1.2-1.018 0-1.805.4-2.361 1.2-.557.79-.835 2.02-.835 3.686zm22.542-7.979H209v15.64h-4.16V16.33l-5.211 9.657h-4.174V10.346h4.174v9.642l5.211-9.642zM207.287 4c0 1.282-.461 2.318-1.382 3.108-.912.79-2.111 1.185-3.599 1.185-1.487 0-2.691-.39-3.613-1.17-.911-.781-1.367-1.822-1.367-3.123h2.951c0 .607.177 1.08.532 1.417.365.327.864.491 1.497.491.624 0 1.114-.164 1.469-.491.355-.338.532-.81.532-1.417h2.98z"/></symbol><symbol viewBox="0 0 12 12" id="modal-close"><path d="M11.414 2.414a1.414 1.414 0 1 0-2-2l-3.5 3.5-3.5-3.5a1.414 1.414 0 1 0-2 2l3.5 3.5-3.5 3.5a1.414 1.414 0 0 0 2 2l3.5-3.5 3.5 3.5a1.414 1.414 0 1 0 2-2l-3.5-3.5 3.5-3.5z"/></symbol><symbol viewBox="0 0 7 4" id="navbar-dropdown"><path d="M3.5 4a.488.488 0 0 1-.347-.144L.143.84a.492.492 0 0 1 0-.695.49.49 0 0 1 .694 0L3.5 2.814 6.163.144a.49.49 0 0 1 .693 0 .492.492 0 0 1 0 .695l-3.01 3.017A.488.488 0 0 1 3.5 4z"/></symbol><symbol viewBox="0 0 11 17" id="pagin-next"><path fill-rule="evenodd" clip-rule="evenodd" d="M.9.98A1.5 1.5 0 0 0 .98 3.1l5.816 5.4-5.817 5.4a1.5 1.5 0 0 0 2.042 2.2l7-6.5a1.5 1.5 0 0 0 0-2.2l-7-6.5A1.5 1.5 0 0 0 .9.98z"/></symbol><symbol viewBox="0 0 11 17" id="pagin-prev"><path fill-rule="evenodd" clip-rule="evenodd" d="M10.1.98a1.5 1.5 0 0 1-.08 2.12L4.205 8.5l5.817 5.4a1.5 1.5 0 0 1-2.042 2.2l-7-6.5a1.5 1.5 0 0 1 0-2.2l7-6.5a1.5 1.5 0 0 1 2.12.08z"/></symbol><symbol viewBox="0 0 459.325 459.325" id="plus"><path d="M459.319 229.668c0 22.201-17.992 40.193-40.205 40.193H269.85v149.271c0 22.207-17.998 40.199-40.196 40.193-11.101 0-21.149-4.492-28.416-11.763-7.276-7.281-11.774-17.324-11.769-28.419l-.006-149.288H40.181c-11.094 0-21.134-4.492-28.416-11.774C4.501 250.817.006 240.769.006 229.668 0 207.471 17.992 189.475 40.202 189.475h149.267V40.202C189.469 17.998 207.471 0 229.671 0c22.192.006 40.178 17.986 40.19 40.187v149.288h149.282c22.196.012 40.165 17.996 40.176 40.193z"/></symbol><symbol viewBox="0 0 30 42" id="ruble"><path fill-rule="evenodd" clip-rule="evenodd" d="M7.246 27.231v-1.673h9.343c4.259-.077 7.553-1.202 9.884-3.375C28.825 19.99 30 16.875 30 12.836c0-3.884-1.229-6.99-3.686-9.317C23.856 1.173 20.477 0 16.176 0H1.43v27.231H0v3.693h1.43V42h5.816V30.924h9.026V27.23H7.246zm8.93-6.202h-8.93V4.558h8.962c2.479 0 4.428.76 5.847 2.279 1.42 1.519 2.13 3.538 2.13 6.057 0 2.616-.689 4.625-2.066 6.03-1.377 1.403-3.358 2.105-5.943 2.105z"/></symbol><symbol viewBox="0 0 54 37" id="slick-left"><path d="M.736 20.268l16.069 16c.98.976 2.57.976 3.55 0a2.49 2.49 0 0 0 0-3.536L8.574 21H51.49c1.386 0 2.51-1.12 2.51-2.5S52.876 16 51.49 16H8.572L20.356 4.268c.98-.977.98-2.56 0-3.536A2.51 2.51 0 0 0 18.58 0a2.51 2.51 0 0 0-1.775.732l-16.07 16c-.98.977-.98 2.56 0 3.536z"/></symbol><symbol viewBox="0 0 54 37" id="slick-right"><path d="M53.264 16.732l-16.07-16a2.519 2.519 0 0 0-3.55 0c-.98.977-.98 2.56 0 3.536L45.427 16H2.511A2.506 2.506 0 0 0 0 18.5C0 19.88 1.124 21 2.51 21h42.917L33.644 32.732c-.98.977-.98 2.56 0 3.536A2.51 2.51 0 0 0 35.42 37a2.51 2.51 0 0 0 1.775-.732l16.07-16c.98-.977.98-2.56 0-3.536z"/></symbol><symbol viewBox="0 0 480.56 480.56" id="tel"><path d="M365.354 317.9c-15.7-15.5-35.3-15.5-50.9 0-11.9 11.8-23.8 23.6-35.5 35.6-3.2 3.3-5.9 4-9.8 1.8-7.7-4.2-15.9-7.6-23.3-12.2-34.5-21.7-63.4-49.6-89-81-12.7-15.6-24-32.3-31.9-51.1-1.6-3.8-1.3-6.3 1.8-9.4 11.9-11.5 23.5-23.3 35.2-35.1 16.3-16.4 16.3-35.6-.1-52.1-9.3-9.4-18.6-18.6-27.9-28-9.6-9.6-19.1-19.3-28.8-28.8-15.7-15.3-35.3-15.3-50.9.1-12 11.8-23.5 23.9-35.7 35.5-11.3 10.7-17 23.8-18.2 39.1-1.9 24.9 4.2 48.4 12.8 71.3 17.6 47.4 44.4 89.5 76.9 128.1 43.9 52.2 96.3 93.5 157.6 123.3 27.6 13.4 56.2 23.7 87.3 25.4 21.4 1.2 40-4.2 54.9-20.9 10.2-11.4 21.7-21.8 32.5-32.7 16-16.2 16.1-35.8.2-51.8-19-19.1-38.1-38.1-57.2-57.1zm-19.1-79.7l36.9-6.3c-5.8-33.9-21.8-64.6-46.1-89-25.7-25.7-58.2-41.9-94-46.9l-5.2 37.1c27.7 3.9 52.9 16.4 72.8 36.3 18.8 18.8 31.1 42.6 35.6 68.8zm57.7-160.4c-42.6-42.6-96.5-69.5-156-77.8l-5.2 37.1c51.4 7.2 98 30.5 134.8 67.2 34.9 34.9 57.8 79 66.1 127.5l36.9-6.3c-9.7-56.2-36.2-107.2-76.6-147.7z"/></symbol><symbol viewBox="0 0 44 44" id="view"><path fill-rule="evenodd" clip-rule="evenodd" d="M43 22c0 11.598-9.402 21-21 21S1 33.598 1 22 10.402 1 22 1s21 9.402 21 21zm1 0c0 12.15-9.85 22-22 22S0 34.15 0 22 9.85 0 22 0s22 9.85 22 22zm-4.968 0c0 9.407-7.625 17.032-17.032 17.032S4.968 31.407 4.968 22 12.593 4.968 22 4.968 39.032 12.593 39.032 22zm-11.443.798h-4.79v4.79a.798.798 0 1 1-1.597 0v-4.79h-4.79a.798.798 0 1 1 0-1.597h4.79v-4.79a.798.798 0 0 1 1.596 0v4.79h4.79a.799.799 0 0 1 0 1.597z"/></symbol><symbol viewBox="0 0 304.36 304.36" id="vk"><path d="M261.945 175.576c10.096 9.857 20.752 19.131 29.807 29.982 4 4.822 7.787 9.798 10.684 15.394 4.105 7.955.387 16.709-6.746 17.184l-44.34-.02c-11.436.949-20.559-3.655-28.23-11.474-6.139-6.253-11.824-12.908-17.727-19.372-2.42-2.642-4.953-5.128-7.979-7.093-6.053-3.929-11.307-2.726-14.766 3.587-3.523 6.421-4.322 13.531-4.668 20.687-.475 10.441-3.631 13.186-14.119 13.664-22.414 1.057-43.686-2.334-63.447-13.641-17.422-9.968-30.932-24.04-42.691-39.971-22.895-31.021-40.428-65.108-56.186-100.15C-2.01 76.458.584 72.22 9.295 72.07c14.465-.281 28.928-.261 43.41-.02 5.879.086 9.771 3.458 12.041 9.012 7.826 19.243 17.402 37.551 29.422 54.521 3.201 4.518 6.465 9.036 11.113 12.216 5.142 3.521 9.057 2.354 11.476-3.374 1.535-3.632 2.207-7.544 2.553-11.434 1.146-13.383 1.297-26.743-.713-40.079-1.234-8.323-5.922-13.711-14.227-15.286-4.238-.803-3.607-2.38-1.555-4.799 3.564-4.172 6.916-6.769 13.598-6.769h50.111c7.889 1.557 9.641 5.101 10.721 13.039l.043 55.663c-.086 3.073 1.535 12.192 7.07 14.226 4.43 1.448 7.35-2.096 10.008-4.905 11.998-12.734 20.561-27.783 28.211-43.366 3.395-6.852 6.314-13.968 9.143-21.078 2.096-5.276 5.385-7.872 11.328-7.757l48.229.043c1.43 0 2.877.021 4.262.258 8.127 1.385 10.354 4.881 7.844 12.817-3.955 12.451-11.65 22.827-19.174 33.251-8.043 11.129-16.645 21.877-24.621 33.072-7.328 10.223-6.746 15.376 2.357 24.255zm0 0" fill-rule="evenodd" clip-rule="evenodd"/></symbol></svg>