<svg width="87" height="80" viewBox="0 0 87 80" fill="none" xmlns="http://www.w3.org/2000/svg">
<circle cx="40" cy="40" r="40" fill="#D1F1F8"/>
<path d="M1.6353 3.27059C2.53844 3.27059 3.27059 2.53844 3.27059 1.6353C3.27059 0.732146 2.53844 0 1.6353 0C0.732147 0 0 0.732146 0 1.6353C0 2.53844 0.732147 3.27059 1.6353 3.27059Z" transform="translate(34.2034 71.5682)" fill="#00AEF3"/>
<path d="M60.1818 24.4586C60.5127 23.9302 60.7047 23.3062 60.7047 22.6381V22.0622C60.7047 20.1646 59.161 18.621 57.2635 18.621H46.5643C46.3319 18.621 46.1048 18.6444 45.8852 18.6887L47.8067 9.00623C48.0885 7.58627 48.1204 6.1905 47.9017 4.85749C47.5382 2.64141 46.3676 -9.17913e-07 42.8558 -9.17913e-07C42.355 -9.17913e-07 41.9272 0.361212 41.8433 0.854904L41.1692 4.82112C40.9029 6.38806 40.5375 7.88062 40.0834 9.25738C38.826 13.0701 37.2394 15.0243 34.4246 16.2283C33.0722 16.8066 31.9739 17.3014 31.5349 17.5007H27.2983V16.6797C27.2983 16.1123 26.8386 15.6527 26.2712 15.6527H19.3187V14.5446C19.3187 13.9772 18.859 13.5175 18.2916 13.5175H1.02703C0.459649 13.5175 1.46032e-08 13.9772 1.46032e-08 14.5446V20.639C1.46032e-08 21.2064 0.459786 21.666 1.02703 21.666C1.59442 21.666 2.05407 21.2062 2.05407 20.639V15.5716H17.2647V16.6797V39.7476H2.0542V24.0625C2.0542 23.4952 1.59455 23.0355 1.02717 23.0355C0.459786 23.0355 0.000136659 23.4953 0.000136659 24.0625V40.7747C0.000136659 41.3421 0.459923 41.8017 1.02717 41.8017H18.2919C18.8593 41.8017 19.3189 41.3421 19.3189 40.7747V39.6666H26.2715C26.8389 39.6666 27.2985 39.2069 27.2985 38.6395V38.1581H31.3947L33.6017 39.9449C35.4545 41.445 37.7878 42.2711 40.1719 42.2711H46.4291C46.4363 42.2711 46.4433 42.2701 46.4504 42.27C46.5825 42.284 46.7162 42.2918 46.852 42.2918H54.1887C56.2451 42.2918 57.918 40.6189 57.918 38.5627C57.918 37.9455 57.7664 37.3634 57.4998 36.85C59.3086 36.5942 60.7045 35.0367 60.7045 33.1585C60.7045 32.3989 60.4756 31.6917 60.0842 31.1018C61.1931 30.5298 61.9534 29.3734 61.9534 28.042V27.4663C61.9537 26.1744 61.2377 25.0471 60.1818 24.4586ZM46.5643 20.6755H57.2635V20.6753C58.0283 20.6753 58.6507 21.2975 58.6507 22.0625V22.6383C58.6507 23.4032 58.0285 24.0255 57.2635 24.0255H46.5643C45.7995 24.0255 45.1772 23.4033 45.1772 22.6383V22.0863C45.2443 21.8369 45.3027 21.603 45.353 21.3886C45.5903 20.9637 46.0441 20.6755 46.5643 20.6755ZM43.123 38.5631C43.123 39.1569 43.2632 39.7184 43.5112 40.2173H40.1717C38.257 40.217 36.3828 39.5534 34.8944 38.3485L32.4045 36.3328C32.2217 36.1847 31.9935 36.1039 31.7582 36.1039H27.2984V33.1587C27.2984 32.5914 26.8388 32.1317 26.2714 32.1317C25.704 32.1317 25.2443 32.5915 25.2443 33.1587V37.1311V37.6125H19.3188V17.7069H25.2443V18.5279V29.7352V29.7353C25.2443 30.3027 25.7041 30.7623 26.2714 30.7623C26.8388 30.7623 27.2984 30.3027 27.2984 29.7353V29.7352V19.5551H31.7582C31.9064 19.5551 32.0528 19.5231 32.1873 19.4611C32.2003 19.4553 33.5041 18.8563 35.2324 18.1171C38.6163 16.67 40.5868 14.2896 42.0344 9.90078C42.5206 8.42654 42.9106 6.83349 43.1943 5.16552L43.7078 2.14403C44.913 2.42512 45.5775 3.38051 45.8744 5.1904C46.0531 6.27964 46.0254 7.42904 45.7916 8.6066L43.6019 19.6411C43.5978 19.6616 43.5942 19.6825 43.5915 19.7034C43.5889 19.7225 43.5335 20.1084 43.3976 20.7161C43.2606 21.037 43.1716 21.3827 43.1383 21.7445C42.3246 24.6491 40.2308 29.6266 35.4369 29.6266C34.8696 29.6266 34.4099 30.0863 34.4099 30.6536C34.4099 31.221 34.8696 31.6807 35.4369 31.6807C38.6159 31.6807 41.2659 30.0403 43.167 26.9202C43.1385 27.0983 43.1231 27.2808 43.1231 27.4669V28.0427C43.1231 29.0254 43.5378 29.9125 44.2006 30.5402C43.5349 31.214 43.1231 32.1392 43.1231 33.159C43.1231 34.2217 43.5706 35.1812 44.2862 35.861C43.5703 36.5409 43.123 37.5003 43.123 38.5631ZM54.189 40.2378H46.8522C45.9287 40.2378 45.1773 39.4864 45.1773 38.5628C45.1773 37.6393 45.9287 36.8877 46.8522 36.8877H54.189C55.1125 36.8877 55.8641 37.6392 55.8641 38.5628C55.8639 39.4864 55.1125 40.2378 54.189 40.2378ZM56.9757 34.8337H54.1891H46.8524C45.9288 34.8337 45.1774 34.0823 45.1774 33.1587C45.1774 32.2352 45.9288 31.4838 46.8524 31.4838H56.9759C57.8994 31.4838 58.6508 32.2352 58.6508 33.1587C58.6507 34.0821 57.8993 34.8337 56.9757 34.8337ZM59.8995 28.0423C59.8996 28.8071 59.2774 29.4295 58.5125 29.4295H56.9756H46.8521H46.5642C45.7994 29.4295 45.177 28.8071 45.177 28.0423V27.4664C45.177 26.7016 45.7992 26.0793 46.5642 26.0793H57.2634H58.5123C59.2771 26.0793 59.8995 26.7015 59.8995 27.4664V28.0423Z" transform="translate(23 37.7081)" fill="#00AEF3"/>
<path d="M20.1598 7.28849C19.932 6.58808 19.3378 6.08728 18.609 5.98132L13.9388 5.30265L11.8503 1.07078C11.5242 0.410294 10.8641 9.59637e-08 10.1275 9.59637e-08C9.39095 9.59637e-08 8.73087 0.410294 8.40479 1.07078L6.31655 5.30265L1.6465 5.98132C0.917514 6.08714 0.323333 6.58794 0.0955595 7.28849C-0.132214 7.9889 0.053997 8.74359 0.581596 9.2582L3.96102 12.5522L3.1634 17.2034C3.03885 17.9295 3.3317 18.6493 3.92738 19.0824C4.26426 19.3271 4.65815 19.4513 5.0549 19.4513C5.3602 19.4513 5.667 19.3776 5.95069 19.2286L10.1277 17.0326L14.3048 19.2286C14.9568 19.5713 15.7318 19.5153 16.3277 19.0824C16.9236 18.6496 17.2165 17.9295 17.0919 17.2034L16.2942 12.5522L19.6736 9.25793C20.2012 8.74373 20.3874 7.98904 20.1598 7.28849ZM14.8102 11.1299C14.3573 11.5714 14.1507 12.207 14.2576 12.8303L15.0216 17.2846L11.0213 15.1817C10.4615 14.8872 9.79304 14.8873 9.23331 15.1816L5.23305 17.2846L5.9969 12.8303C6.10381 12.2072 5.89737 11.5716 5.44455 11.1299L2.20814 7.97537L6.6809 7.3254C7.30653 7.23462 7.84753 6.84183 8.12739 6.27445L10.1275 2.22155L12.1274 6.27417C12.4071 6.84156 12.948 7.23462 13.5739 7.3254L18.0462 7.97537L14.8102 11.1299Z" transform="translate(23.4453 17.5317)" fill="#00AEF3"/>
<path d="M20.1599 7.28835C19.9321 6.58794 19.3379 6.08714 18.6091 5.98118L13.9389 5.30251L11.8504 1.07078C11.5244 0.410294 10.8644 0 10.1277 0C9.39109 0 8.73114 0.410294 8.40507 1.07078L6.31655 5.30265L1.6465 5.98132C0.917514 6.087 0.323334 6.58794 0.0955601 7.28849C-0.132214 7.9889 0.0539965 8.74359 0.581595 9.2582L3.96115 12.5523L3.1634 17.2034C3.03885 17.9295 3.3317 18.6493 3.92738 19.0824C4.52334 19.5154 5.29826 19.5713 5.95055 19.2287L10.1276 17.0327L14.3046 19.2287C14.5882 19.3779 14.895 19.4514 15.2004 19.4514C15.597 19.4514 15.9911 19.3271 16.3279 19.0826C16.9238 18.6496 17.2166 17.9296 17.0919 17.2036L16.2942 12.5524L19.6739 9.2582C20.2013 8.74359 20.3875 7.9889 20.1599 7.28835ZM14.8105 11.1299C14.3578 11.5711 14.1512 12.2065 14.2579 12.8303L15.0219 17.2846L11.0215 15.1816C10.4619 14.8873 9.79331 14.8873 9.23358 15.1816L5.23332 17.2846L5.99731 12.8303C6.10422 12.207 5.89764 11.5714 5.44483 11.1299L2.20855 7.97537L6.68104 7.32541C7.3068 7.23462 7.84766 6.84183 8.12766 6.27445L10.1277 2.22168L12.1278 6.27458C12.4078 6.84183 12.9486 7.23462 13.5743 7.32541L18.0468 7.97537L14.8105 11.1299Z" transform="translate(45.0503 10)" fill="#00AEF3"/>
<path d="M20.1597 7.28849C19.9319 6.58808 19.3377 6.08728 18.6089 5.98132L13.9387 5.30265L11.8503 1.07078C11.5242 0.410294 10.8643 2.08617e-08 10.1276 2.08617e-08C9.391 2.08617e-08 8.73106 0.410294 8.40498 1.07078L6.31646 5.30265L1.64642 5.98132C0.91743 6.08714 0.323246 6.58794 0.0954718 7.28849C-0.132165 7.98904 0.0540459 8.74373 0.581645 9.25807L3.96107 12.5523L3.16331 17.2034C3.03876 17.9295 3.33148 18.6493 3.9273 19.0824C4.52325 19.5154 5.29804 19.5715 5.95047 19.2287L10.1275 17.0327L14.3045 19.2287C14.5881 19.3779 14.8949 19.4514 15.2003 19.4514C15.5971 19.4514 15.9911 19.3271 16.3278 19.0826C16.9237 18.6496 17.2165 17.9296 17.0918 17.2036L16.2941 12.5524L19.6738 9.25834C20.2011 8.74359 20.3874 7.9889 20.1597 7.28849ZM14.8101 11.13C14.3576 11.5714 14.151 12.2067 14.2578 12.8301L15.0218 17.2844L11.0214 15.1814C10.7416 15.0343 10.4346 14.9608 10.1275 14.9608C9.82043 14.9608 9.5135 15.0343 9.2335 15.1814L5.23324 17.2844L5.99722 12.8301C6.10414 12.2067 5.89769 11.5712 5.44474 11.1297L2.20847 7.97523L6.68068 7.32527C7.30631 7.23449 7.8473 6.84169 8.12731 6.27431L10.1276 2.22168L12.1277 6.27458C12.4077 6.84183 12.9486 7.23449 13.5742 7.3254L18.0467 7.97537L14.8101 11.13Z" transform="translate(66.616 17.5318)" fill="#00AEF3"/>
</svg>
