<svg width="87" height="80" viewBox="0 0 87 80" fill="none" xmlns="http://www.w3.org/2000/svg">
<circle cx="40" cy="40" r="40" fill="#D1F1F8"/>
<path d="M51.3333 67.6667H2.33333V2.33333H39.6667V14H51.3333V17.5H53.6667V12.3503L41.3163 0H-1.09037e-07V70H53.6667V50.1667H51.3333V67.6667ZM42 3.983L49.6837 11.6667H42V3.983Z" transform="translate(23 10)" fill="#00AEF3"/>
<path d="M2.33333 0H0V2.33333H2.33333V0Z" transform="translate(30 17)" fill="#00AEF3"/>
<path d="M23.3333 0H0V2.33333H23.3333V0Z" transform="translate(34.6665 17)" fill="#00AEF3"/>
<path d="M28 0H0V2.33333H28V0Z" transform="translate(30 21.6666)" fill="#00AEF3"/>
<path d="M39.6667 0H0V2.33333H39.6667V0Z" transform="translate(30 26.3334)" fill="#00AEF3"/>
<path d="M39.6667 0H0V2.33333H39.6667V0Z" transform="translate(30 31)" fill="#00AEF3"/>
<path d="M39.6667 0H0V2.33333H39.6667V0Z" transform="translate(30 35.6666)" fill="#00AEF3"/>
<path d="M39.6667 0H0V2.33333H39.6667V0Z" transform="translate(30 40.3334)" fill="#00AEF3"/>
<path d="M35 0H0V2.33333H35V0Z" transform="translate(30 45)" fill="#00AEF3"/>
<path d="M35 0H0V2.33333H35V0Z" transform="translate(30 49.6666)" fill="#00AEF3"/>
<path d="M32.6667 0H0V2.33333H32.6667V0Z" transform="translate(30 54.3334)" fill="#00AEF3"/>
<path d="M30.3333 0H0V2.33333H30.3333V0Z" transform="translate(30 59)" fill="#00AEF3"/>
<path d="M2.8 3.45343C3.58692 3.45912 4.347 3.16745 4.928 2.63676C5.21967 2.40343 5.30717 2.33343 5.59767 2.33343C5.88817 2.33343 5.97567 2.40343 6.26733 2.63676C7.47877 3.72483 9.3154 3.72483 10.5268 2.63676C10.8185 2.40343 10.9072 2.33227 11.1988 2.33227C11.4905 2.33227 11.5792 2.40226 11.872 2.63676C12.4543 3.16687 13.2148 3.45839 14.0023 3.45343V1.1201C13.7107 1.1201 13.622 1.0501 13.3292 0.815601C12.117 -0.271441 10.2807 -0.271441 9.0685 0.815601C8.77683 1.04893 8.68817 1.1201 8.3965 1.1201C8.10483 1.1201 8.0185 1.0501 7.72567 0.816767C6.5154 -0.272025 4.67877 -0.272025 3.4685 0.816767C3.17683 1.0501 3.08933 1.1201 2.8 1.1201C2.51067 1.1201 2.422 1.0501 2.13033 0.816767C1.54875 0.285496 0.787645 -0.00617124 -9.43502e-07 9.95911e-05V2.33343C0.289332 2.33343 0.376832 2.40343 0.668499 2.63676C1.25096 3.16745 2.01206 3.45912 2.8 3.45343Z" transform="translate(48.6665 66.6065)" fill="#00AEF3"/>
<path d="M22.2437 1.26812L20.1157 0.309121C18.353 -0.484067 16.2808 0.301828 15.4876 2.06452C15.4876 2.06466 15.4875 2.06481 15.4875 2.06495L-1.17493e-06 36.4618L1.701 44.051L8.51083 40.2943L23.9983 5.89629C24.7883 4.1336 24.0036 2.06408 22.2437 1.26812ZM3.30167 40.4926L2.877 38.6015L5.00383 39.5593L3.30167 40.4926ZM7.02683 37.9096L2.76617 36.0009L15.2157 8.34162L19.4717 10.2585L7.02683 37.9096ZM21.8657 4.94429L20.4295 8.13512L16.1735 6.21829L17.6108 3.02862C17.876 2.44193 18.5662 2.18089 19.1532 2.44529L21.2812 3.40195C21.8683 3.66664 22.1299 4.35702 21.8657 4.94429Z" transform="translate(62.5007 24.889)" fill="#00AEF3"/>
</svg>
