<svg width="84" height="80" viewBox="0 0 84 80" fill="none" xmlns="http://www.w3.org/2000/svg">
<circle cx="40" cy="40" r="40" fill="#D1F1F8"/>
<path d="M53.5254 0V2.05078H56.875V13.9892C55.5282 13.555 54.5508 12.2902 54.5508 10.8008H52.5C52.5 12.6477 50.9973 14.1504 49.1504 14.1504V16.2012C50.9973 16.2012 52.5 17.7038 52.5 19.5508H54.5508C54.5508 18.0614 55.5282 16.7966 56.875 16.3624V61.25H2.05078V2.05078H44.7754V0H0V63.3008H58.9258V0H53.5254ZM53.5254 16.3904C53.1876 15.9239 52.7773 15.5136 52.3108 15.1758C52.7773 14.8379 53.1876 14.4277 53.5254 13.9612C53.8632 14.4277 54.2735 14.8379 54.74 15.1758C54.2735 15.5136 53.8632 15.9239 53.5254 16.3904Z" transform="translate(25 16.6992)" fill="#00AEF3"/>
<path d="M0 0V23.9258H2.05078V2.05078H21.875V52.5H2.05078V32.6758H0V54.5508H23.9258V0H0Z" transform="translate(29.375 21.0742)" fill="#00AEF3"/>
<path d="M0 0V49.1504H2.05078V2.05078H22.9004V0H0Z" transform="translate(55.625 21.0742)" fill="#00AEF3"/>
<path d="M20.8496 0V32.9492H0V35H22.9004V0H20.8496Z" transform="translate(56.6504 40.625)" fill="#00AEF3"/>
<path d="M6.18789 0H0V2.05078H6.18789V0Z" transform="translate(34.0498 30.1248) rotate(-45)" fill="#00AEF3"/>
<path d="M12.3743 0H0V2.05078H12.3743V0Z" transform="translate(34.05 34.4998) rotate(-45)" fill="#00AEF3"/>
<path d="M6.18789 0H0V2.05078H6.18789V0Z" transform="translate(60.2993 30.1246) rotate(-45)" fill="#00AEF3"/>
<path d="M12.3743 0H0V2.05078H12.3743V0Z" transform="translate(60.2998 34.4999) rotate(-45)" fill="#00AEF3"/>
<path d="M5.40039 0H3.34961C3.34961 1.84693 1.84693 3.34961 0 3.34961V5.40039C1.84693 5.40039 3.34961 6.90307 3.34961 8.75H5.40039C5.40039 6.90307 6.90307 5.40039 8.75 5.40039V3.34961C6.90307 3.34961 5.40039 1.84693 5.40039 0ZM4.375 5.58961C4.03717 5.12313 3.62687 4.71283 3.16039 4.375C3.62687 4.03717 4.03717 3.62687 4.375 3.16039C4.71283 3.62687 5.12313 4.03717 5.58961 4.375C5.12313 4.71283 4.71283 5.12313 4.375 5.58961Z" transform="translate(30.4004 45)" fill="#00AEF3"/>
<path d="M5.40039 0H3.34961C3.34961 1.84693 1.84693 3.34961 0 3.34961V5.40039C1.84693 5.40039 3.34961 6.90307 3.34961 8.75H5.40039C5.40039 6.90307 6.90307 5.40039 8.75 5.40039V3.34961C6.90307 3.34961 5.40039 1.84693 5.40039 0ZM4.375 5.58961C4.03717 5.12313 3.62687 4.71283 3.16039 4.375C3.62687 4.03717 4.03717 3.62687 4.375 3.16039C4.71283 3.62687 5.12313 4.03717 5.58961 4.375C5.12313 4.71283 4.71283 5.12313 4.375 5.58961Z" transform="translate(69.7754 10)" fill="#00AEF3"/>
<path d="M2.1875 0H0V2.05078H2.1875V0Z" transform="translate(71.9629 47.3242)" fill="#00AEF3"/>
<path d="M2.1875 0H0V2.05078H2.1875V0Z" transform="translate(66.4941 47.3242)" fill="#00AEF3"/>
<path d="M2.1875 0H0V2.05078H2.1875V0Z" transform="translate(61.0254 47.3242)" fill="#00AEF3"/>
</svg>
