<svg width="87" height="80" viewBox="0 0 87 80" fill="none" xmlns="http://www.w3.org/2000/svg">
<circle cx="40" cy="40" r="40" fill="#D1F1F8"/>
<path d="M55.3897 15.2165H18.5573L30.8078 2.96594L42.0034 14.1616C42.4835 14.6413 43.2612 14.6413 43.741 14.1616C44.2207 13.6818 44.2207 12.9038 43.741 12.4242L31.6765 0.35981C31.1968 -0.119937 30.4187 -0.119937 29.9391 0.35981L15.0823 15.2166H8.77297C3.93559 15.2166 -6.67572e-08 19.153 -6.67572e-08 23.9915V61.2251C-6.67572e-08 66.0636 3.93559 70 8.77297 70H18.4445C19.123 70 19.673 69.45 19.673 68.7714C19.673 68.0929 19.123 67.5428 18.4445 67.5428H8.77297C5.29047 67.5428 2.45725 64.7086 2.45725 61.225V23.9914C2.45725 20.5078 5.29061 17.6736 8.77297 17.6736H55.3897C57.4685 17.6736 59.1599 19.3648 59.1599 21.4438V29.1207C59.1599 29.7992 59.7098 30.3492 60.3884 30.3492C61.0671 30.3492 61.617 29.7992 61.617 29.1207V21.4438C61.617 18.0099 58.8234 15.2165 55.3897 15.2165Z" transform="translate(22 10)" fill="#00AEF3"/>
<path d="M38.761 3.67165e-07H21.2853C19.1817 3.67165e-07 17.4703 1.71145 17.4703 3.815V18.1669C17.4703 20.2706 19.1817 21.9819 21.2853 21.9819H37.03V32.1553C37.03 34.2341 35.3388 35.9255 33.2599 35.9255H1.22856C0.550021 35.9255 -2.83718e-07 36.4755 -2.83718e-07 37.154C-2.83718e-07 37.8326 0.550021 38.3826 1.22856 38.3826H33.2599C36.6936 38.3826 39.4871 35.5891 39.4871 32.1553V21.9117C41.2445 21.5716 42.576 20.0221 42.576 18.1668V3.81486C42.576 1.71131 40.8647 3.67165e-07 38.761 3.67165e-07ZM40.1189 18.1668C40.1189 18.9156 39.5097 19.5247 38.761 19.5247H21.2853C20.5367 19.5247 19.9275 18.9155 19.9275 18.1668V3.81486C19.9275 3.06605 20.5367 2.45697 21.2853 2.45697H38.761C39.5097 2.45697 40.1189 3.06619 40.1189 3.81486V18.1668Z" transform="translate(44.1299 41.6174)" fill="#00AEF3"/>
<path d="M7.93666 3.35399C7.25799 3.35399 6.70811 3.904 6.70811 4.58254C6.70811 5.75449 5.75477 6.70797 4.58268 6.70797C3.41059 6.70797 2.45725 5.75463 2.45725 4.58254C2.45725 3.41045 3.41059 2.45711 4.58268 2.45711C5.26135 2.45711 5.81123 1.90709 5.81123 1.22856C5.81123 0.550021 5.26135 -1.56879e-06 4.58268 -1.56879e-06C2.05584 -1.56879e-06 5.34058e-07 2.05584 5.34058e-07 4.58268C5.34058e-07 7.10951 2.05584 9.16536 4.58268 9.16536C7.10951 9.16536 9.16536 7.10965 9.16536 4.58268C9.16536 3.90401 8.6152 3.35399 7.93666 3.35399Z" transform="translate(66.9453 48.0259)" fill="#00AEF3"/>
</svg>
