<svg width="90" height="83" viewBox="0 0 90 83" fill="none" xmlns="http://www.w3.org/2000/svg">
<circle cx="40" cy="40" r="40" fill="#D1F1F8"/>
<path fill-rule="evenodd" clip-rule="evenodd" d="M4.83571 28.6395C2.58662 22.6541 2.38718 17.5268 4.33072 15.5785C4.64747 15.2606 4.96986 14.9229 5.29905 14.5781C5.3734 14.5002 5.4481 14.422 5.52316 14.3435C7.54946 12.2036 9.84098 9.78474 12.3765 9.78474C12.4295 9.78474 12.4847 9.78474 12.5399 9.78686C14.3307 9.86139 16.253 11.1688 18.2602 13.6707C24.2645 21.1675 22.1411 23.265 18.6235 26.7397L17.9483 27.4109C15.1369 30.2364 18.0098 35.747 26.9871 44.756C30.6217 48.4034 33.7492 51.0927 36.2783 52.7429C39.9257 55.1213 42.6161 55.4918 44.2689 53.8288L44.9479 53.1411L44.9498 53.1392C48.4114 49.6164 50.4977 47.4932 57.965 53.5158C60.4623 55.528 61.7651 57.4571 61.8372 59.2542C61.9454 61.8644 59.4803 64.2153 57.3028 66.292L57.2966 66.2979C57.2475 66.345 57.1985 66.392 57.1496 66.4388C56.7747 66.7979 56.4095 67.1477 56.066 67.4924C54.1225 69.4407 49.0175 69.2491 43.0489 66.9878C35.68 64.2005 27.6321 58.658 20.3841 51.3865C13.1361 44.1108 7.61523 36.0323 4.83571 28.6395ZM41.9876 69.7937C45.1833 71.0044 48.2776 71.7137 50.9517 71.8165C53.4664 71.9131 56.3115 71.4942 58.1899 69.6111L58.1911 69.61C58.5082 69.2917 58.8465 68.9677 59.2251 68.605C59.2736 68.5585 59.3228 68.5114 59.3727 68.4635L59.452 68.3879C60.4886 67.3996 61.8044 66.1451 62.8323 64.7663C63.8818 63.3586 64.9296 61.4368 64.8348 59.132C64.7079 55.9916 62.5226 53.3353 59.8472 51.1798C56.0654 48.1297 52.8149 46.3972 49.6106 46.7678C47.9718 46.9573 46.659 47.6645 45.5917 48.4664C44.6101 49.2039 43.6942 50.1363 42.8914 50.9536C42.8641 50.9814 42.837 51.009 42.8099 51.0365L42.8091 51.0374L42.8072 51.0393L42.1412 51.714L42.134 51.7212C42.1332 51.7221 42.1323 51.7231 42.1315 51.724C42.0749 51.7835 41.9623 51.9019 41.4269 51.8289C40.7209 51.7326 39.5711 51.3085 37.9176 50.2304C35.6441 48.747 32.6871 46.2261 29.1121 42.6384C24.6672 38.1777 21.9762 34.8128 20.7073 32.3781C20.0768 31.1683 19.9173 30.4105 19.9119 30.0057C19.908 29.722 19.9673 29.6358 20.0705 29.5313L20.7318 28.874C20.7316 28.8741 20.7319 28.8738 20.7318 28.874C20.7319 28.8738 20.7326 28.8731 20.7328 28.873C20.7334 28.8724 20.7341 28.8717 20.7347 28.8711C20.7611 28.845 20.7876 28.8188 20.8143 28.7925C21.6307 27.9863 22.5614 27.0673 23.2978 26.0824C24.0983 25.0116 24.8025 23.6976 24.9926 22.0593C25.3646 18.854 23.6456 15.5958 20.6017 11.7953L20.6002 11.7933C18.4532 9.11721 15.8039 6.9201 12.6646 6.78946L12.6556 6.7891C12.5406 6.78466 12.4343 6.78471 12.3853 6.78473L12.3765 6.78474C10.149 6.78474 8.29891 7.83906 6.93907 8.87663C5.60088 9.89769 4.38048 11.1868 3.41425 12.2075C3.39271 12.2302 3.37131 12.2528 3.35003 12.2753C3.27147 12.3574 3.19497 12.4375 3.12016 12.5159C2.79303 12.8585 2.49834 13.1672 2.20682 13.4598L41.9876 69.7937ZM41.986 69.7932C34.1159 66.816 25.7202 60.9895 18.2593 53.5044C10.7972 46.0137 4.99458 37.5866 2.02762 29.6953C0.82415 26.4925 0.116988 23.3903 0.0132265 20.7112C-0.0842075 18.1954 0.328228 15.3439 2.20567 13.4609L41.986 69.7932Z" transform="translate(17 11.1704)" fill="#00AEF3"/>
<path fill-rule="evenodd" clip-rule="evenodd" d="M44.0573 3.06056C40.0734 3.23802 36.1743 4.4213 32.7848 6.47744C32.0678 6.91236 31.1341 6.68373 30.6992 5.96679C30.2642 5.24985 30.4929 4.31609 31.2098 3.88117C35.0367 1.55967 39.4313 0.226976 43.9222 0.0269418C58.7516 -0.633598 71.3436 10.9328 72.0059 25.8033C72.2708 31.7503 70.6281 37.4803 67.2554 42.3648C66.7789 43.0548 65.8333 43.2279 65.1433 42.7515C64.4533 42.275 64.2801 41.3294 64.7566 40.6394C67.7514 36.3022 69.2078 31.226 68.9723 25.9384C68.3841 12.7331 57.2011 2.47511 44.0573 3.06056Z" transform="translate(17 11.1704)" fill="#00AEF3"/>
<path d="M35.5842 17.5864C36.8488 17.2032 38.0624 16.9647 39.3715 16.9647C42.7579 16.9647 44.8288 18.6617 44.8288 21.5554C44.8288 23.1566 43.9461 24.3767 42.0641 25.6202L38.2767 28.1775C37.1076 28.9674 36.5835 30.2109 36.5835 31.5502H44.3259C44.4935 31.5502 44.589 31.646 44.589 31.8121V33.654C44.589 33.82 44.4935 33.9159 44.3259 33.9159H34.152C33.9865 33.9159 33.891 33.82 33.891 33.654V32.5063C33.891 29.5892 34.8437 27.4854 36.9867 26.0737L40.7528 23.5633C41.7055 22.916 42.132 22.2943 42.132 21.5554C42.132 20.2161 41.0838 19.3559 39.3673 19.3559C38.2958 19.3559 37.271 19.5475 36.3671 19.8562L34.9837 20.3119C34.8437 20.3588 34.7227 20.2864 34.6739 20.1437L34.0798 18.3508C34.0077 18.2082 34.0798 18.0868 34.2453 18.04L35.5842 17.5864Z" transform="translate(17 11.1704)" fill="#00AEF3"/>
<path fill-rule="evenodd" clip-rule="evenodd" d="M35.6943 17.9299L34.4589 18.3484L34.9838 19.9322L36.2524 19.5143C37.1907 19.1941 38.2542 18.9952 39.3673 18.9952C40.2818 18.9952 41.0608 19.2242 41.619 19.6721C42.1859 20.127 42.4926 20.7829 42.4926 21.5554C42.4926 22.4692 41.9499 23.186 40.9555 23.8616L40.9528 23.8634L37.1851 26.3749C35.1656 27.7052 34.2516 29.6811 34.2516 32.5063V33.5552H44.2284V31.9108H36.2229V31.5502C36.2229 30.114 36.7889 28.7476 38.0748 27.8787L41.8653 25.3193C43.7017 24.1059 44.4681 22.9815 44.4681 21.5554C44.4681 20.2013 43.9876 19.1606 43.1389 18.4517C42.2817 17.7357 41.0088 17.3253 39.3715 17.3253C38.1101 17.3253 36.9346 17.5543 35.6943 17.9299ZM35.4796 17.2413C36.7664 16.8513 38.0166 16.6041 39.3715 16.6041C41.1207 16.6041 42.5764 17.0422 43.6012 17.8981C44.6345 18.7612 45.1894 20.0158 45.1894 21.5554C45.1894 23.3313 44.191 24.6468 42.2644 25.9201L38.4786 28.4763C37.5293 29.1178 37.0439 30.0927 36.9581 31.1896H44.3259C44.4776 31.1896 44.6452 31.2342 44.775 31.3636C44.9048 31.4931 44.9496 31.6607 44.9496 31.8121V33.654C44.9496 33.8054 44.9048 33.9729 44.775 34.1025C44.6452 34.2319 44.4776 34.2765 44.3259 34.2765H34.152C34.0002 34.2765 33.833 34.2312 33.704 34.1017C33.5751 33.9724 33.5304 33.8053 33.5304 33.654V32.5063C33.5304 29.4976 34.5215 27.2662 36.7874 25.7731L36.7883 25.7726L40.5515 23.2641C41.4614 22.6456 41.7714 22.119 41.7714 21.5554C41.7714 20.9886 41.554 20.5447 41.1676 20.2346C40.7727 19.9177 40.1693 19.7165 39.3673 19.7165C38.3382 19.7165 37.3527 19.9007 36.4837 20.1975L36.4799 20.1988L35.0981 20.6539C34.9408 20.7063 34.7686 20.6974 34.6187 20.6137C34.4732 20.5324 34.3803 20.3993 34.3327 20.2604L34.3316 20.2571L33.7443 18.4846C33.677 18.3336 33.6658 18.1525 33.7575 17.9857C33.846 17.8248 33.9976 17.7374 34.137 17.6959L35.474 17.243L35.4796 17.2413Z" transform="translate(17 11.1704)" fill="#00AEF3"/>
<path d="M59.5371 29.374C59.5371 29.5423 59.4416 29.6381 59.2761 29.6381H57.7993V33.656C57.7993 33.8221 57.7038 33.9179 57.5362 33.9179H55.3932C55.2256 33.9179 55.1301 33.8221 55.1301 33.656V29.6381H47.1459C46.9804 29.6381 46.8849 29.5423 46.8849 29.374V27.3661C46.8849 27.2235 46.9104 27.1277 47.0058 27.0318C47.5999 26.3398 48.124 25.6925 48.6969 24.9047L53.1059 19.2131C53.5579 18.6148 53.9143 18.0399 54.3196 17.3713C54.4151 17.2521 54.5106 17.2052 54.6527 17.2052H57.5341C57.7017 17.2052 57.7972 17.301 57.7972 17.4671V27.2703H59.274C59.4395 27.2703 59.5349 27.3661 59.5349 27.5343V29.374H59.5371ZM55.1301 23.1331C55.1301 22.3687 55.1768 21.6022 55.2723 20.7888C55.319 20.5013 55.1068 20.4289 54.9158 20.693L51.0542 25.618C50.7444 26.0481 50.2925 26.5975 49.9593 26.9083C49.7917 27.1 49.8872 27.2661 50.0782 27.2661H55.1301V23.1331Z" transform="translate(17 11.1704)" fill="#00AEF3"/>
<path fill-rule="evenodd" clip-rule="evenodd" d="M54.6137 17.5819C54.2136 18.2415 53.8522 18.8235 53.3937 19.4305L53.391 19.434L48.9853 25.1212C48.4067 25.9166 47.8772 26.5705 47.2794 27.2667L47.2707 27.2769L47.2613 27.2864C47.2547 27.293 47.2517 27.2969 47.2507 27.2984C47.2496 27.302 47.2455 27.3191 47.2455 27.3661V29.2775H55.4907V33.5573H57.4387V29.2775H59.1743V27.6309H57.4366V17.5658H54.6527C54.6396 17.5658 54.632 17.5667 54.6284 17.5673C54.6257 17.5696 54.6208 17.574 54.6137 17.5819ZM59.8955 29.0134H59.8977V29.374C59.8977 29.5253 59.8536 29.6929 59.7248 29.8229C59.5956 29.9534 59.4279 29.9987 59.2761 29.9987H58.1599V33.656C58.1599 33.8074 58.1152 33.975 57.9853 34.1045C57.8556 34.234 57.6879 34.2785 57.5362 34.2785H55.3932C55.2416 34.2785 55.0739 34.234 54.9441 34.1045C54.8143 33.975 54.7695 33.8074 54.7695 33.656V29.9987H47.1459C46.994 29.9987 46.8264 29.9534 46.6971 29.8229C46.5683 29.6929 46.5243 29.5253 46.5243 29.374V27.3661C46.5243 27.2757 46.5319 27.1718 46.5682 27.0652C46.6047 26.958 46.6634 26.8674 46.7398 26.7881C47.326 26.105 47.8417 25.4675 48.4052 24.6926L48.4085 24.6882L52.8195 18.994C53.2588 18.4122 53.6068 17.8515 54.0112 17.1844L54.0234 17.1643L54.0381 17.1459C54.1081 17.0586 54.1946 16.977 54.3082 16.9206C54.4232 16.8635 54.5405 16.8446 54.6527 16.8446H57.5341C57.6858 16.8446 57.8534 16.8892 57.9832 17.0186C58.113 17.1481 58.1578 17.3157 58.1578 17.4671V26.9097H59.274C59.4258 26.9097 59.5934 26.955 59.7227 27.0855C59.8515 27.2155 59.8955 27.3831 59.8955 27.5343V29.0134ZM55.6296 20.8377C55.5362 21.6357 55.4907 22.386 55.4907 23.1331V27.6267H50.0782C49.8861 27.6267 49.6495 27.5374 49.5505 27.2956C49.452 27.0549 49.5552 26.8226 49.6879 26.6709L49.6999 26.6572L49.7133 26.6447C50.0221 26.3566 50.4583 25.8283 50.7616 25.4072L50.7659 25.4013L54.6282 20.4754C54.6964 20.3825 54.7806 20.2987 54.882 20.2417C54.9847 20.184 55.1295 20.1421 55.2855 20.1883C55.4497 20.2369 55.5524 20.3611 55.6004 20.4877C55.6446 20.6047 55.6464 20.7277 55.6296 20.8377ZM54.8504 21.3608L51.3425 25.8348C51.1001 26.1707 50.7704 26.5821 50.4694 26.9054H54.7695V23.1331C54.7695 22.5492 54.7962 21.9647 54.8504 21.3608Z" transform="translate(17 11.1704)" fill="#00AEF3"/>
</svg>
