<svg width="84" height="80" viewBox="0 0 84 80" fill="none" xmlns="http://www.w3.org/2000/svg">
<circle cx="40" cy="40" r="40" fill="#D1F1F8"/>
<path d="M1.36719 0C0.6125 0 0 0.6125 0 1.36719C0 2.12187 0.6125 2.73438 1.36719 2.73438C2.12187 2.73438 2.73438 2.12187 2.73438 1.36719C2.73438 0.6125 2.12187 0 1.36719 0Z" transform="translate(31.4688 38.1641)" fill="#00AEF3"/>
<path d="M56.0547 11.7578C41.1562 11.7578 33.1498 3.79668 30.5188 1.18057C29.9832 0.64791 29.7143 0.380625 29.431 0.205078C28.9897 -0.0683594 28.4318 -0.0683594 27.9906 0.205078C27.7957 0.325801 27.6388 0.479063 27.2597 0.84957C26.2855 1.80113 24.0045 4.02979 20.4775 6.23574C14.6165 9.89994 8.18672 11.7578 1.36719 11.7578C0.61209 11.7578 0 12.3699 0 13.125V31.0611C0 39.6717 2.71633 47.8741 7.85559 54.7818C13.4288 62.2709 20.6958 67.655 28.318 69.9423C28.4461 69.9807 28.5786 70 28.7109 70C28.8433 70 28.9758 69.9807 29.1039 69.9423C36.7261 67.655 43.9931 62.2709 49.5664 54.7817C54.7055 47.8741 57.4219 39.6717 57.4219 31.0611V13.125C57.4219 12.3699 56.8098 11.7578 56.0547 11.7578ZM54.6875 31.0611C54.6875 39.0791 52.1581 46.7173 47.3728 53.1494C42.245 60.0398 35.6316 65.0163 28.7109 67.2023C21.7902 65.0163 15.1769 60.0398 10.0492 53.1496C5.26381 46.7173 2.73438 39.0791 2.73438 31.0611V14.4689C9.56689 14.2356 16.0173 12.2489 21.9274 8.55422C25.2335 6.48635 27.5066 4.41055 28.7176 3.24543C31.5849 6.09328 39.763 14.0107 54.6875 14.4711V31.0611Z" transform="translate(26 10)" fill="#00AEF3"/>
<path d="M45.2677 9.3449C37.7426 8.51187 30.6034 5.46674 24.0481 0.293983C23.5573 -0.0933417 22.8666 -0.0984002 22.3703 0.281541C15.8774 5.25086 8.36062 8.45992 1.20449 9.31756C0.517207 9.4 0 9.98297 0 10.675V16.4692C0 17.2243 0.61209 17.8364 1.36719 17.8364C2.12229 17.8364 2.73438 17.2243 2.73438 16.4692V11.8686C7.93584 11.0767 15.3217 8.87322 23.1887 3.08592C29.5688 7.92029 36.4759 10.8841 43.75 11.9097V23.4679C43.75 30.3007 41.5941 36.8087 37.5149 42.2891C33.6083 47.5433 28.6817 51.3841 23.2422 53.4226C17.803 51.3843 12.8769 47.5444 8.97039 42.2912C5.67916 37.8691 3.59939 32.6646 2.95586 27.2403C2.86699 26.4905 2.18736 25.9535 1.43719 26.0437C0.687422 26.1326 0.151621 26.8126 0.240625 27.5624C0.940352 33.461 3.20059 39.1186 6.7766 43.9234C11.1166 49.7595 16.6523 53.993 22.7855 56.1663C22.9332 56.2187 23.0877 56.2448 23.2422 56.2448C23.3967 56.2448 23.5512 56.2187 23.6988 56.1663C29.8324 53.9929 35.3687 49.7583 39.7089 43.9211C44.1414 37.9657 46.4844 30.8931 46.4844 23.4678V10.7037C46.4844 10.0069 45.9603 9.4216 45.2677 9.3449Z" transform="translate(31.4688 17.5933)" fill="#00AEF3"/>
<path d="M27.3191 9.8998C27.1582 9.40488 26.7304 9.04408 26.2153 8.9693L18.4093 7.83535L14.9196 0.762344C14.6894 0.295586 14.214 0.000136168 13.6937 -5.50747e-07C13.1733 -5.50747e-07 12.698 0.295449 12.4677 0.76207L8.97689 7.83535L1.17066 8.9693C0.655644 9.04408 0.227849 9.40488 0.066931 9.8998C-0.0938503 10.3947 0.0402716 10.938 0.412967 11.3013L6.0615 16.8071L4.72836 24.582C4.64031 25.0949 4.85127 25.6133 5.27236 25.9191C5.51052 26.0922 5.79258 26.1803 6.07599 26.1803C6.29365 26.1803 6.51213 26.1285 6.71215 26.0232L13.6937 22.3519L20.6739 26.023C21.1346 26.2652 21.6928 26.2251 22.1138 25.9191C22.5349 25.6133 22.7458 25.0949 22.6578 24.5819L21.3246 16.807L26.9732 11.3012C27.3457 10.9382 27.4799 10.3949 27.3191 9.8998ZM18.9012 15.3508C18.5789 15.6648 18.4318 16.1174 18.508 16.5609L19.4943 22.3135L14.3298 19.5974C13.9314 19.3879 13.4555 19.3879 13.0571 19.5974L7.89121 22.3139L8.87763 16.561C8.95379 16.1175 8.80668 15.665 8.48443 15.3509L4.30508 11.2772L10.081 10.4382C10.5263 10.3735 10.9113 10.0938 11.1105 9.69035L13.6933 4.45717L16.2751 9.69021C16.4741 10.0938 16.8591 10.3737 17.3046 10.4383L23.0805 11.2774L18.9012 15.3508Z" transform="translate(40.9641 30.0701)" fill="#00AEF3"/>
</svg>
