<svg width="209" height="52" viewBox="0 0 209 52" xmlns="http://www.w3.org/2000/svg">
<path d="M27.1276 36.4739C25.3357 45.5431 18.7487 50.6035 15.6792 52C24.8877 39.6777 22.8967 38.199 22.6478 27.8483C15.4304 22.9194 14.9326 17.9905 16.4259 13.308C16.177 19.9621 23.1455 25.3839 27.6253 25.3839C32.1051 25.3839 35.5894 21.9336 37.5804 18.7298C37.8293 22.9194 34.345 26.6161 31.1096 27.3554C29.3675 38.9384 34.345 42.6351 36.8338 48.0569C34.5939 47.3175 28.3719 41.4028 27.1276 36.4739Z"/>
<path d="M32.6029 18.9763C32.6029 21.4262 30.5972 23.4123 28.1231 23.4123C25.649 23.4123 23.6433 21.4262 23.6433 18.9763C23.6433 16.5264 25.649 14.5403 28.1231 14.5403C30.5972 14.5403 32.6029 16.5264 32.6029 18.9763Z"/>
<path fill-rule="evenodd" clip-rule="evenodd" d="M21.6523 37.9526V34.0095L13.9371 35.4882V6.90048L38.5759 4.436V30.8057L32.8517 32.0379V35.7346L41.3136 34.0095V30.8323L50.0242 31.2986V0L41.3136 3.45023V0L10.4528 3.2038V6.08273L0 4.436V40.6635L10.4528 36.4291V40.1706L21.6523 37.9526ZM8.71069 8.15656L10.4528 8.37915V20.9677L8.71069 21.1199V8.15656ZM7.71518 8.02936L2.73764 7.39337V21.6418L7.71518 21.2069V8.02936ZM2.73764 22.6314V37.2133L7.71518 35.3053V22.1965L2.73764 22.6314ZM8.71069 34.9237L10.4528 34.2559V21.9573L8.71069 22.1095V34.9237ZM43.5534 4.59006L41.3135 5.42181V16.6283L43.5534 16.2586V4.59006ZM44.549 4.2204V16.0943L47.2866 15.6425V3.2038L44.549 4.2204ZM47.2866 16.6419L44.549 17.0937V29.2141L47.2866 29.327V16.6419ZM43.5534 29.173V17.258L41.3135 17.6277V29.0806L43.5534 29.173Z"/>
<path d="M65.1012 37.4063H61.4629V44.1138H60.1067V36.3016H65.1012V37.4063Z"/>
<path d="M71.1457 44.1138C71.068 43.9597 71.0048 43.6854 70.9562 43.2907C70.3291 43.9357 69.5805 44.2582 68.7104 44.2582C67.9327 44.2582 67.2935 44.0416 66.7928 43.6084C66.297 43.1703 66.0491 42.6168 66.0491 41.9477C66.0491 41.1343 66.3602 40.5037 66.9824 40.0561C67.6095 39.6036 68.4893 39.3774 69.6219 39.3774H70.9343V38.7637C70.9343 38.2968 70.7933 37.9261 70.5114 37.6518C70.2295 37.3726 69.8139 37.233 69.2646 37.233C68.7834 37.233 68.3799 37.3534 68.0542 37.594C67.7285 37.8347 67.5657 38.1259 67.5657 38.4677H66.2095C66.2095 38.0778 66.3481 37.7023 66.6251 37.3413C66.9071 36.9755 67.2862 36.6867 67.7626 36.4749C68.2438 36.2631 68.7712 36.1572 69.3448 36.1572C70.2538 36.1572 70.9659 36.3835 71.4811 36.8359C71.9964 37.2836 72.2637 37.9021 72.2832 38.6915V42.2871C72.2832 43.0043 72.3755 43.5747 72.5603 43.9982V44.1138H71.1457ZM68.9073 43.0957C69.3302 43.0957 69.7312 42.9874 70.1104 42.7708C70.4895 42.5542 70.7642 42.2726 70.9343 41.9261V40.3232H69.8771C68.2244 40.3232 67.398 40.8021 67.398 41.76C67.398 42.1788 67.539 42.5061 67.8209 42.7419C68.1028 42.9778 68.465 43.0957 68.9073 43.0957Z"/>
<path d="M81.0619 40.2943C81.0619 41.4832 80.7873 42.4411 80.238 43.1679C79.6887 43.8947 78.945 44.2582 78.0069 44.2582C77.0493 44.2582 76.2958 43.9573 75.7466 43.3557V47.1173H74.3977V36.3016H75.6299L75.6955 37.168C76.2448 36.4942 77.008 36.1572 77.985 36.1572C78.9329 36.1572 79.6814 36.511 80.2307 37.2186C80.7849 37.9261 81.0619 38.9105 81.0619 40.1716V40.2943ZM79.713 40.1427C79.713 39.2619 79.5235 38.5663 79.1443 38.0561C78.7652 37.5459 78.245 37.2908 77.584 37.2908C76.7673 37.2908 76.1549 37.6494 75.7466 38.3666V42.0994C76.15 42.8117 76.7673 43.1679 77.5985 43.1679C78.245 43.1679 78.7579 42.9152 79.137 42.4098C79.521 41.8996 79.713 41.1439 79.713 40.1427Z"/>
<path d="M87.6533 44.1138C87.5755 43.9597 87.5123 43.6854 87.4637 43.2907C86.8366 43.9357 86.0881 44.2582 85.218 44.2582C84.4402 44.2582 83.801 44.0416 83.3004 43.6084C82.8045 43.1703 82.5566 42.6168 82.5566 41.9477C82.5566 41.1343 82.8677 40.5037 83.4899 40.0561C84.117 39.6036 84.9968 39.3774 86.1294 39.3774H87.4418V38.7637C87.4418 38.2968 87.3009 37.9261 87.0189 37.6518C86.737 37.3726 86.3214 37.233 85.7721 37.233C85.2909 37.233 84.8874 37.3534 84.5618 37.594C84.2361 37.8347 84.0732 38.1259 84.0732 38.4677H82.7171C82.7171 38.0778 82.8556 37.7023 83.1327 37.3413C83.4146 36.9755 83.7937 36.6867 84.2701 36.4749C84.7513 36.2631 85.2787 36.1572 85.8523 36.1572C86.7613 36.1572 87.4734 36.3835 87.9887 36.8359C88.5039 37.2836 88.7713 37.9021 88.7907 38.6915V42.2871C88.7907 43.0043 88.8831 43.5747 89.0678 43.9982V44.1138H87.6533ZM85.4148 43.0957C85.8377 43.0957 86.2388 42.9874 86.6179 42.7708C86.9971 42.5542 87.2717 42.2726 87.4418 41.9261V40.3232H86.3846C84.7319 40.3232 83.9055 40.8021 83.9055 41.76C83.9055 42.1788 84.0465 42.5061 84.3284 42.7419C84.6104 42.9778 84.9725 43.0957 85.4148 43.0957Z"/>
<path d="M97.3507 44.1138H96.0018V40.7781H92.378V44.1138H91.0219V36.3016H92.378V39.6878H96.0018V36.3016H97.3507V44.1138Z"/>
<path d="M105.386 37.3846H102.739V44.1138H101.39V37.3846H98.7944V36.3016H105.386V37.3846Z"/>
<path d="M110.526 44.1138V36.3016H113.603C114.653 36.3016 115.457 36.4845 116.016 36.8504C116.58 37.2114 116.862 37.7432 116.862 38.446C116.862 38.807 116.753 39.1343 116.534 39.4279C116.315 39.7167 115.992 39.9381 115.564 40.0922C116.041 40.2029 116.422 40.4195 116.709 40.742C117.001 41.0645 117.147 41.4495 117.147 41.8972C117.147 42.6144 116.879 43.1631 116.345 43.5434C115.815 43.9236 115.064 44.1138 114.092 44.1138H110.526ZM111.875 40.6842V43.038H114.106C114.67 43.038 115.09 42.9345 115.368 42.7275C115.649 42.5205 115.79 42.2293 115.79 41.8539C115.79 41.0741 115.212 40.6842 114.055 40.6842H111.875ZM111.875 39.6156H113.618C114.881 39.6156 115.513 39.2498 115.513 38.5182C115.513 37.7866 114.915 37.4087 113.72 37.3846H111.875V39.6156Z"/>
<path d="M123.804 44.1138C123.726 43.9597 123.663 43.6854 123.614 43.2907C122.987 43.9357 122.238 44.2582 121.368 44.2582C120.591 44.2582 119.951 44.0416 119.451 43.6084C118.955 43.1703 118.707 42.6168 118.707 41.9477C118.707 41.1343 119.018 40.5037 119.64 40.0561C120.267 39.6036 121.147 39.3774 122.28 39.3774H123.592V38.7637C123.592 38.2968 123.451 37.9261 123.169 37.6518C122.887 37.3726 122.472 37.233 121.922 37.233C121.441 37.233 121.038 37.3534 120.712 37.594C120.386 37.8347 120.224 38.1259 120.224 38.4677H118.867C118.867 38.0778 119.006 37.7023 119.283 37.3413C119.565 36.9755 119.944 36.6867 120.42 36.4749C120.902 36.2631 121.429 36.1572 122.003 36.1572C122.912 36.1572 123.624 36.3835 124.139 36.8359C124.654 37.2836 124.922 37.9021 124.941 38.6915V42.2871C124.941 43.0043 125.033 43.5747 125.218 43.9982V44.1138H123.804ZM121.565 43.0957C121.988 43.0957 122.389 42.9874 122.768 42.7708C123.147 42.5542 123.422 42.2726 123.592 41.9261V40.3232H122.535C120.882 40.3232 120.056 40.8021 120.056 41.76C120.056 42.1788 120.197 42.5061 120.479 42.7419C120.761 42.9778 121.123 43.0957 121.565 43.0957Z"/>
<path d="M128.528 36.3016V43.0235H131.416V36.3016H132.765V43.0235H135.645V36.3016H137.001V44.1138H127.172V36.3016H128.528Z"/>
<path d="M142.404 44.2582C141.334 44.2582 140.464 43.9116 139.793 43.2185C139.123 42.5205 138.787 41.5891 138.787 40.4243V40.1788C138.787 39.4039 138.936 38.7131 139.232 38.1066C139.533 37.4953 139.951 37.0188 140.486 36.6771C141.026 36.3305 141.609 36.1572 142.236 36.1572C143.262 36.1572 144.059 36.4918 144.628 37.1608C145.196 37.8299 145.481 38.7877 145.481 40.0344V40.5904H140.136C140.156 41.3605 140.382 41.9838 140.814 42.4604C141.252 42.9321 141.806 43.1679 142.477 43.1679C142.953 43.1679 143.356 43.0717 143.687 42.8791C144.018 42.6866 144.307 42.4315 144.555 42.1138L145.379 42.7492C144.718 43.7552 143.726 44.2582 142.404 44.2582ZM142.236 37.2547C141.692 37.2547 141.235 37.452 140.865 37.8467C140.496 38.2366 140.267 38.7853 140.18 39.4929H144.132V39.3918C144.093 38.7131 143.908 38.1885 143.578 37.8178C143.247 37.4424 142.8 37.2547 142.236 37.2547Z"/>
<path d="M152.145 37.4063H148.507V44.1138H147.15V36.3016H152.145V37.4063Z"/>
<path d="M152.816 40.1355C152.816 39.3702 152.966 38.6818 153.268 38.0705C153.574 37.4592 153.997 36.9875 154.536 36.6554C155.081 36.3233 155.701 36.1572 156.396 36.1572C157.47 36.1572 158.338 36.5254 158.999 37.2619C159.665 37.9983 159.998 38.9779 159.998 40.2005V40.2943C159.998 41.0549 159.849 41.7384 159.553 42.3448C159.261 42.9465 158.841 43.4158 158.292 43.7528C157.747 44.0897 157.12 44.2582 156.41 44.2582C155.341 44.2582 154.473 43.8899 153.807 43.1535C153.146 42.417 152.816 41.4423 152.816 40.2294V40.1355ZM154.172 40.2943C154.172 41.1607 154.374 41.8563 154.777 42.3809C155.185 42.9056 155.73 43.1679 156.41 43.1679C157.096 43.1679 157.64 42.9032 158.044 42.3737C158.447 41.8394 158.649 41.0934 158.649 40.1355C158.649 39.2787 158.442 38.5856 158.029 38.0561C157.621 37.5218 157.076 37.2547 156.396 37.2547C155.73 37.2547 155.193 37.517 154.784 38.0417C154.376 38.5663 154.172 39.3172 154.172 40.2943Z"/>
<path d="M167.974 42.1571L169.812 36.3016H171.255L168.084 45.3195C167.593 46.6191 166.813 47.2689 165.743 47.2689L165.488 47.2473L164.985 47.1534V46.0704L165.35 46.0993C165.806 46.0993 166.161 46.0078 166.414 45.8249C166.672 45.642 166.883 45.3075 167.048 44.8213L167.347 44.0271L164.533 36.3016H166.006L167.974 42.1571Z"/>
<path d="M173.939 39.6156H175.834C175.936 38.576 176.308 37.7408 176.95 37.1103C177.596 36.4749 178.411 36.1572 179.393 36.1572C180.423 36.1572 181.266 36.5014 181.923 37.1897C182.579 37.878 182.934 38.7733 182.987 39.8756L182.994 40.2943C182.994 41.0549 182.844 41.7408 182.542 42.3521C182.241 42.9634 181.818 43.4351 181.274 43.7672C180.729 44.0945 180.107 44.2582 179.407 44.2582C178.391 44.2582 177.56 43.9309 176.914 43.2762C176.267 42.6168 175.905 41.7624 175.827 40.7131H173.939V44.1138H172.59V36.3016H173.939V39.6156ZM177.161 40.2943C177.161 41.1607 177.363 41.8563 177.767 42.3809C178.175 42.9056 178.722 43.1679 179.407 43.1679C180.093 43.1679 180.635 42.9008 181.033 42.3665C181.437 41.8322 181.638 41.0885 181.638 40.1355C181.638 39.2835 181.434 38.5904 181.026 38.0561C180.618 37.5218 180.073 37.2547 179.393 37.2547C178.722 37.2547 178.182 37.517 177.774 38.0417C177.366 38.5663 177.161 39.3172 177.161 40.2943Z"/>
<path d="M190.519 37.3846H187.872V44.1138H186.523V37.3846H183.928V36.3016H190.519V37.3846Z"/>
<path d="M196.585 44.1138C196.508 43.9597 196.445 43.6854 196.396 43.2907C195.769 43.9357 195.02 44.2582 194.15 44.2582C193.372 44.2582 192.733 44.0416 192.233 43.6084C191.737 43.1703 191.489 42.6168 191.489 41.9477C191.489 41.1343 191.8 40.5037 192.422 40.0561C193.049 39.6036 193.929 39.3774 195.062 39.3774H196.374V38.7637C196.374 38.2968 196.233 37.9261 195.951 37.6518C195.669 37.3726 195.254 37.233 194.704 37.233C194.223 37.233 193.82 37.3534 193.494 37.594C193.168 37.8347 193.005 38.1259 193.005 38.4677H191.649C191.649 38.0778 191.788 37.7023 192.065 37.3413C192.347 36.9755 192.726 36.6867 193.202 36.4749C193.684 36.2631 194.211 36.1572 194.785 36.1572C195.694 36.1572 196.406 36.3835 196.921 36.8359C197.436 37.2836 197.704 37.9021 197.723 38.6915V42.2871C197.723 43.0043 197.815 43.5747 198 43.9982V44.1138H196.585ZM194.347 43.0957C194.77 43.0957 195.171 42.9874 195.55 42.7708C195.929 42.5542 196.204 42.2726 196.374 41.9261V40.3232H195.317C193.664 40.3232 192.838 40.8021 192.838 41.76C192.838 42.1788 192.979 42.5061 193.261 42.7419C193.543 42.9778 193.905 43.0957 194.347 43.0957Z"/>
<path d="M75.8494 15.9401C75.8494 18.012 75.4847 19.8286 74.7554 21.3898C74.0261 22.951 72.98 24.1556 71.6173 25.0036C70.2642 25.8517 68.7096 26.2757 66.9535 26.2757C65.2165 26.2757 63.6667 25.8565 62.304 25.0181C60.9413 24.1797 59.8857 22.9847 59.1372 21.4331C58.3887 19.872 58.0096 18.0795 58 16.0558V15.015C58 12.943 58.3695 11.1217 59.1084 9.55085C59.8569 7.9704 60.9077 6.76097 62.2608 5.92256C63.6235 5.07451 65.1781 4.65049 66.9247 4.65049C68.6712 4.65049 70.2211 5.07451 71.5742 5.92256C72.9369 6.76097 73.9877 7.9704 74.7266 9.55085C75.4751 11.1217 75.8494 12.9382 75.8494 15.0005V15.9401ZM71.4734 14.9861C71.4734 12.7792 71.08 11.1024 70.293 9.9556C69.5061 8.80881 68.3833 8.23542 66.9247 8.23542C65.4756 8.23542 64.3576 8.80399 63.5707 9.94115C62.7838 11.0687 62.3856 12.7262 62.376 14.9138V15.9401C62.376 18.0891 62.7694 19.7563 63.5563 20.9417C64.3432 22.127 65.4756 22.7197 66.9535 22.7197C68.4025 22.7197 69.5157 22.1511 70.293 21.0139C71.0704 19.8671 71.4638 18.2 71.4734 16.0124V14.9861Z"/>
<path d="M84.8173 20.2189H83.1475V25.9866H78.9874V10.3459H83.1475V16.2292H84.6301L88.0273 10.3459H93.2813L88.1856 17.7904L93.7563 25.9866H88.2144L84.8173 20.2189Z"/>
<path d="M108.828 25.9866H104.653V19.9732H99.4854V25.9866H95.3254V10.3459H99.4854V16.6195H104.653V10.3459H108.828V25.9866Z"/>
<path d="M121.077 25.9866C120.885 25.6107 120.746 25.1433 120.66 24.5844C119.652 25.7119 118.342 26.2757 116.73 26.2757C115.204 26.2757 113.938 25.8324 112.93 24.9458C111.932 24.0592 111.433 22.9413 111.433 21.5922C111.433 19.9346 112.042 18.6625 113.261 17.7759C114.489 16.8893 116.26 16.4412 118.573 16.4316H120.487V15.5354C120.487 14.8126 120.3 14.2344 119.926 13.8007C119.561 13.3671 118.981 13.1502 118.184 13.1502C117.484 13.1502 116.932 13.3189 116.529 13.6562C116.135 13.9935 115.939 14.456 115.939 15.0439H111.778C111.778 14.138 112.057 13.2996 112.613 12.5287C113.17 11.7577 113.957 11.1554 114.974 10.7217C115.991 10.2784 117.133 10.0568 118.4 10.0568C120.319 10.0568 121.84 10.5435 122.963 11.5168C124.095 12.4805 124.662 13.8393 124.662 15.5932V22.3727C124.671 23.8568 124.878 24.9795 125.281 25.7408V25.9866H121.077ZM117.637 23.0811C118.251 23.0811 118.817 22.9461 119.336 22.6763C119.854 22.3968 120.238 22.0258 120.487 21.5632V18.8745H118.933C116.85 18.8745 115.742 19.5973 115.607 21.0429L115.593 21.2886C115.593 21.809 115.775 22.2378 116.14 22.5751C116.505 22.9124 117.004 23.0811 117.637 23.0811Z"/>
<path d="M144.584 18.9757C144.421 21.2404 143.586 23.0232 142.079 24.3242C140.582 25.6252 138.605 26.2757 136.149 26.2757C133.462 26.2757 131.346 25.3698 129.801 23.5581C128.265 21.7367 127.497 19.2408 127.497 16.0702V14.7837C127.497 12.7599 127.852 10.9771 128.563 9.43521C129.273 7.89331 130.285 6.71279 131.6 5.89365C132.924 5.06488 134.46 4.65049 136.206 4.65049C138.625 4.65049 140.573 5.30098 142.05 6.60196C143.528 7.90294 144.382 9.72913 144.613 12.0805H140.294C140.189 10.7217 139.81 9.73877 139.157 9.13165C138.514 8.51489 137.531 8.2065 136.206 8.2065C134.767 8.2065 133.687 8.7269 132.967 9.76768C132.257 10.7988 131.893 12.4034 131.873 14.5813V16.1714C131.873 18.4457 132.214 20.1081 132.895 21.1585C133.586 22.2089 134.671 22.7341 136.149 22.7341C137.483 22.7341 138.476 22.4306 139.128 21.8234C139.79 21.2067 140.17 20.2574 140.265 18.9757H144.584Z"/>
<path d="M160.073 13.6995H155.078V25.9866H150.903V13.6995H145.995V10.3459H160.073V13.6995Z"/>
<path d="M176.195 18.3108C176.195 20.72 175.648 22.6522 174.554 24.1074C173.469 25.5529 172.001 26.2757 170.149 26.2757C168.575 26.2757 167.303 25.7264 166.334 24.6278V32H162.174V10.3459H166.032L166.176 11.8782C167.184 10.6639 168.498 10.0568 170.12 10.0568C172.039 10.0568 173.532 10.7699 174.597 12.1962C175.662 13.6224 176.195 15.5884 176.195 18.094V18.3108ZM172.035 18.0072C172.035 16.5521 171.775 15.4294 171.257 14.6391C170.749 13.8489 170.005 13.4538 169.026 13.4538C167.721 13.4538 166.824 13.9549 166.334 14.9572V21.3609C166.843 22.392 167.75 22.9076 169.055 22.9076C171.041 22.9076 172.035 21.2741 172.035 18.0072Z"/>
<path d="M178.138 18.0217C178.138 16.4701 178.435 15.0872 179.03 13.873C179.625 12.6588 180.479 11.7192 181.593 11.0542C182.715 10.3893 184.016 10.0568 185.494 10.0568C187.595 10.0568 189.308 10.7025 190.632 11.9938C191.966 13.2851 192.71 15.0391 192.864 17.2556L192.892 18.3252C192.892 20.7248 192.225 22.6522 190.892 24.1074C189.558 25.5529 187.768 26.2757 185.522 26.2757C183.277 26.2757 181.482 25.5529 180.139 24.1074C178.805 22.6618 178.138 20.6959 178.138 18.2096V18.0217ZM182.298 18.3252C182.298 19.8093 182.576 20.9465 183.133 21.7367C183.689 22.5173 184.486 22.9076 185.522 22.9076C186.53 22.9076 187.317 22.5221 187.883 21.7512C188.449 20.9706 188.732 19.7274 188.732 18.0217C188.732 16.5665 188.449 15.439 187.883 14.6391C187.317 13.8393 186.52 13.4393 185.494 13.4393C184.476 13.4393 183.689 13.8393 183.133 14.6391C182.576 15.4294 182.298 16.6581 182.298 18.3252Z"/>
<path d="M204.84 10.3459H209V25.9866H204.84V16.3304L199.629 25.9866H195.455V10.3459H199.629V19.9876L204.84 10.3459ZM207.287 4C207.287 5.28171 206.826 6.31767 205.905 7.1079C204.993 7.89812 203.794 8.29324 202.306 8.29324C200.819 8.29324 199.615 7.90294 198.693 7.12235C197.782 6.34177 197.326 5.30098 197.326 4H200.277C200.277 4.60712 200.454 5.07933 200.809 5.41662C201.174 5.74428 201.673 5.90811 202.306 5.90811C202.93 5.90811 203.42 5.74428 203.775 5.41662C204.13 5.07933 204.307 4.60712 204.307 4H207.287Z"/>
</svg>
