<svg width="30" height="42" viewBox="0 0 30 42" xmlns="http://www.w3.org/2000/svg">
<path fill-rule="evenodd" clip-rule="evenodd" d="M7.24557 27.2314V25.5577H16.589C20.8476 25.4808 24.1422 24.3558 26.4727 22.1827C28.8245 19.9904 30.0004 16.875 30.0004 12.8365C30.0004 8.9519 28.7715 5.84613 26.3138 3.51923C23.8561 1.1731 20.4768 0 16.1759 0H1.42975V27.2314H0V30.9237H1.42975V42H7.24557V30.9237H16.2716V27.2314H7.24557ZM16.1759 21.0289H7.24557V4.55768H16.2076C18.6865 4.55768 20.6357 5.31732 22.0553 6.83655C23.4748 8.35577 24.1845 10.375 24.1845 12.8942C24.1845 15.5096 23.496 17.5192 22.1188 18.9231C20.7417 20.3269 18.7607 21.0289 16.1759 21.0289Z"/>
</svg>