<svg width="44" height="44" viewBox="0 0 44 44" xmlns="http://www.w3.org/2000/svg">
<path fill-rule="evenodd" clip-rule="evenodd" d="M43 22C43 10.4021 33.598 1 22 1C10.402 1 1 10.4021 1 22C1 33.5979 10.402 43 22 43C33.598 43 43 33.5979 43 22ZM44 22C44 9.84985 34.1503 0 22 0C9.84974 0 0 9.84985 0 22C0 34.1501 9.84974 44 22 44C34.1503 44 44 34.1501 44 22ZM39.0322 22C39.0322 12.5933 31.4066 4.96777 21.9999 4.96777C12.5932 4.96777 4.96764 12.5933 4.96764 22C4.96764 31.4067 12.5932 39.0322 21.9999 39.0322C31.4066 39.0322 39.0322 31.4067 39.0322 22ZM27.5887 21.2017H22.7983V16.4114C22.7983 15.9705 22.4409 15.613 22 15.613C21.559 15.613 21.2016 15.9705 21.2016 16.4114V21.2017H16.4113C15.9704 21.2017 15.6129 21.5591 15.6129 22C15.6129 22.4412 15.9704 22.7986 16.4113 22.7986H21.2016V27.5889C21.2016 28.0298 21.559 28.3872 22 28.3872C22.4409 28.3872 22.7983 28.0298 22.7983 27.5889V22.7986H27.5887C28.0296 22.7986 28.387 22.4409 28.387 22C28.3871 21.5593 28.0296 21.2017 27.5887 21.2017Z" transform="translate(0 44) scale(1 -1)"/>
</svg>
